{
  "accessors": [
    {
      "bufferView": 2,
      "componentType": 5126,
      "count": 5163,
      "max": [
        0.19199135899543762,
        0.19199134409427643,
        0.7611303329467773
      ],
      "min": [
        -0.19199135899543762,
        -0.19199137389659882,
        -2.1163985366001725e-05
      ],
      "type": "VEC3"
    },
    {
      "bufferView": 2,
      "byteOffset": 61956,
      "componentType": 5126,
      "count": 5163,
      "max": [
        1.0,
        1.0,
        1.0
      ],
      "min": [
        -1.0,
        -1.0,
        -1.0
      ],
      "type": "VEC3"
    },
    {
      "bufferView": 3,
      "componentType": 5126,
      "count": 5163,
      "max": [
        1.0,
        1.0,
        1.0,
        1.0
      ],
      "min": [
        -1.0,
        -1.0,
        -0.9998812079429626,
        1.0
      ],
      "type": "VEC4"
    },
    {
      "bufferView": 1,
      "componentType": 5126,
      "count": 5163,
      "max": [
        0.996314525604248,
        0.9963202476501465
      ],
      "min": [
        0.0036700665950775146,
        0.0036679799668490887
      ],
      "type": "VEC2"
    },
    {
      "bufferView": 1,
      "byteOffset": 41304,
      "componentType": 5126,
      "count": 5163,
      "max": [
        0.996314525604248,
        0.9963202476501465
      ],
      "min": [
        0.0036700665950775146,
        0.0036679799668490887
      ],
      "type": "VEC2"
    },
    {
      "bufferView": 1,
      "byteOffset": 82608,
      "componentType": 5126,
      "count": 5163,
      "max": [
        0.996314525604248,
        0.9963202476501465
      ],
      "min": [
        0.0036700665950775146,
        0.0036679799668490887
      ],
      "type": "VEC2"
    },
    {
      "bufferView": 0,
      "componentType": 5125,
      "count": 19224,
      "type": "SCALAR"
    }
  ],
  "asset": {
    "extras": {
      "author": "mohamedhussien (https://sketchfab.com/mohamedhussien)",
      "license": "CC-BY-4.0 (http://creativecommons.org/licenses/by/4.0/)",
      "source": "https://sketchfab.com/3d-models/side-table-tall-01-4k-2cf8f1cdd71447979184d598659d6758",
      "title": "Side Table Tall 01 4k"
    },
    "generator": "Sketchfab-12.56.0",
    "version": "2.0"
  },
  "bufferViews": [
    {
      "buffer": 0,
      "byteLength": 76896,
      "name": "floatBufferViews",
      "target": 34963
    },
    {
      "buffer": 0,
      "byteLength": 123912,
      "byteOffset": 76896,
      "byteStride": 8,
      "name": "floatBufferViews",
      "target": 34962
    },
    {
      "buffer": 0,
      "byteLength": 123912,
      "byteOffset": 200808,
      "byteStride": 12,
      "name": "floatBufferViews",
      "target": 34962
    },
    {
      "buffer": 0,
      "byteLength": 82608,
      "byteOffset": 324720,
      "byteStride": 16,
      "name": "floatBufferViews",
      "target": 34962
    }
  ],
  "buffers": [
    {
      "byteLength": 407328,
      "uri": "scene.bin"
    }
  ],
  "images": [
    {
      "uri": "textures/side_table_tall_01_baseColor.jpeg"
    },
    {
      "uri": "textures/side_table_tall_01_metallicRoughness.png"
    },
    {
      "uri": "textures/side_table_tall_01_normal.png"
    }
  ],
  "materials": [
    {
      "doubleSided": true,
      "name": "side_table_tall_01",
      "normalTexture": {
        "index": 2
      },
      "occlusionTexture": {
        "index": 1
      },
      "pbrMetallicRoughness": {
        "baseColorTexture": {
          "index": 0
        },
        "metallicRoughnessTexture": {
          "index": 1
        }
      }
    }
  ],
  "meshes": [
    {
      "name": "side_table_tall_01_side_table_tall_01_0",
      "primitives": [
        {
          "attributes": {
            "NORMAL": 1,
            "POSITION": 0,
            "TANGENT": 2,
            "TEXCOORD_0": 3,
            "TEXCOORD_1": 4,
            "TEXCOORD_2": 5
          },
          "indices": 6,
          "material": 0,
          "mode": 4
        }
      ]
    }
  ],
  "nodes": [
    {
      "children": [
        1
      ],
      "matrix": [
        1.0,
        0.0,
        0.0,
        0.0,
        0.0,
        2.220446049250313e-16,
        -1.0,
        0.0,
        0.0,
        1.0,
        2.220446049250313e-16,
        0.0,
        0.0,
        0.0,
        0.0,
        1.0
      ],
      "name": "Sketchfab_model"
    },
    {
      "children": [
        2
      ],
      "matrix": [
        0.009999999776482582,
        0.0,
        0.0,
        0.0,
        0.0,
        0.0,
        0.009999999776482582,
        0.0,
        0.0,
        -0.009999999776482582,
        0.0,
        0.0,
        0.0,
        0.0,
        0.0,
        1.0
      ],
      "name": "side_table_tall_01_4k.fbx"
    },
    {
      "children": [
        3
      ],
      "name": "RootNode"
    },
    {
      "children": [
        4
      ],
      "matrix": [
        100.0,
        0.0,
        0.0,
        0.0,
        0.0,
        -1.629206793918314e-05,
        -99.99999999999868,
        0.0,
        0.0,
        99.99999999999868,
        -1.629206793918314e-05,
        0.0,
        0.0,
        0.0,
        0.0,
        1.0
      ],
      "name": "side_table_tall_01"
    },
    {
      "mesh": 0,
      "name": "side_table_tall_01_side_table_tall_01_0"
    }
  ],
  "samplers": [
    {
      "magFilter": 9729,
      "minFilter": 9987,
      "wrapS": 10497,
      "wrapT": 10497
    }
  ],
  "scene": 0,
  "scenes": [
    {
      "name": "Sketchfab_Scene",
      "nodes": [
        0
      ]
    }
  ],
  "textures": [
    {
      "sampler": 0,
      "source": 0
    },
    {
      "sampler": 0,
      "source": 1
    },
    {
      "sampler": 0,
      "source": 2
    }
  ]
}
