{
  "accessors": [
    {
      "bufferView": 2,
      "componentType": 5126,
      "count": 65532,
      "max": [
        268.482666015625,
        12.28022289276123,
        325.80810546875
      ],
      "min": [
        68.95092010498047,
        1.72188401222229,
        44.46295166015625
      ],
      "type": "VEC3"
    },
    {
      "bufferView": 2,
      "byteOffset": 786384,
      "componentType": 5126,
      "count": 65532,
      "max": [
        0.9999764561653137,
        1.0,
        0.9999701380729675
      ],
      "min": [
        -0.9999985098838806,
        -1.0,
        -0.9998352527618408
      ],
      "type": "VEC3"
    },
    {
      "bufferView": 3,
      "componentType": 5126,
      "count": 65532,
      "max": [
        0.5960779786109924,
        0.4352940022945404,
        0.3098039925098419,
        1.0
      ],
      "min": [
        0.10980399698019028,
        0.10980399698019028,
        0.10980399698019028,
        1.0
      ],
      "type": "VEC4"
    },
    {
      "bufferView": 1,
      "componentType": 5126,
      "count": 65532,
      "max": [
        0.0,
        0.0
      ],
      "min": [
        0.0,
        0.0
      ],
      "type": "VEC2"
    },
    {
      "bufferView": 0,
      "componentType": 5125,
      "count": 65817,
      "type": "SCALAR"
    },
    {
      "bufferView": 2,
      "byteOffset": 1572768,
      "componentType": 5126,
      "count": 65533,
      "max": [
        268.482666015625,
        12.28022289276123,
        325.8900146484375
      ],
      "min": [
        68.96936798095703,
        1.72188401222229,
        44.46295166015625
      ],
      "type": "VEC3"
    },
    {
      "bufferView": 2,
      "byteOffset": 2359164,
      "componentType": 5126,
      "count": 65533,
      "max": [
        0.9999673962593079,
        1.0,
        0.9999176263809204
      ],
      "min": [
        -0.9999949336051941,
        -1.0,
        -0.9999347925186157
      ],
      "type": "VEC3"
    },
    {
      "bufferView": 3,
      "byteOffset": 1048512,
      "componentType": 5126,
      "count": 65533,
      "max": [
        0.5960779786109924,
        0.4352940022945404,
        0.3098039925098419,
        1.0
      ],
      "min": [
        0.10980399698019028,
        0.10980399698019028,
        0.10980399698019028,
        1.0
      ],
      "type": "VEC4"
    },
    {
      "bufferView": 1,
      "byteOffset": 524256,
      "componentType": 5126,
      "count": 65533,
      "max": [
        0.0,
        0.0
      ],
      "min": [
        0.0,
        0.0
      ],
      "type": "VEC2"
    },
    {
      "bufferView": 0,
      "byteOffset": 263268,
      "componentType": 5125,
      "count": 65772,
      "type": "SCALAR"
    },
    {
      "bufferView": 2,
      "byteOffset": 3145560,
      "componentType": 5126,
      "count": 30214,
      "max": [
        268.3851623535156,
        12.28022289276123,
        324.8717041015625
      ],
      "min": [
        69.02149200439453,
        1.72188401222229,
        44.64921569824219
      ],
      "type": "VEC3"
    },
    {
      "bufferView": 2,
      "byteOffset": 3508128,
      "componentType": 5126,
      "count": 30214,
      "max": [
        0.9991309642791748,
        1.0,
        0.9983001351356506
      ],
      "min": [
        -0.9998760223388672,
        -0.9999998807907104,
        -0.9999527335166931
      ],
      "type": "VEC3"
    },
    {
      "bufferView": 3,
      "byteOffset": 2097040,
      "componentType": 5126,
      "count": 30214,
      "max": [
        0.5960779786109924,
        0.4352940022945404,
        0.3098039925098419,
        1.0
      ],
      "min": [
        0.10980399698019028,
        0.10980399698019028,
        0.10980399698019028,
        1.0
      ],
      "type": "VEC4"
    },
    {
      "bufferView": 1,
      "byteOffset": 1048520,
      "componentType": 5126,
      "count": 30214,
      "max": [
        0.0,
        0.0
      ],
      "min": [
        0.0,
        0.0
      ],
      "type": "VEC2"
    },
    {
      "bufferView": 0,
      "byteOffset": 526356,
      "componentType": 5125,
      "count": 30255,
      "type": "SCALAR"
    },
    {
      "bufferView": 2,
      "byteOffset": 3870696,
      "componentType": 5126,
      "count": 15846,
      "max": [
        315.0,
        21.51793670654297,
        420.0
      ],
      "min": [
        15.0,
        11.517936706542969,
        20.0
      ],
      "type": "VEC3"
    },
    {
      "bufferView": 2,
      "byteOffset": 4060848,
      "componentType": 5126,
      "count": 15846,
      "max": [
        1.0,
        1.0,
        1.0
      ],
      "min": [
        -1.0,
        -1.0,
        -1.0
      ],
      "type": "VEC3"
    },
    {
      "bufferView": 3,
      "byteOffset": 2580464,
      "componentType": 5126,
      "count": 15846,
      "max": [
        0.800000011920929,
        0.5686269998550415,
        0.4039219915866852,
        1.0
      ],
      "min": [
        0.34509798884391785,
        0.2862749993801117,
        0.1254899948835373,
        1.0
      ],
      "type": "VEC4"
    },
    {
      "bufferView": 1,
      "byteOffset": 1290232,
      "componentType": 5126,
      "count": 15846,
      "max": [
        0.0,
        0.0
      ],
      "min": [
        0.0,
        0.0
      ],
      "type": "VEC2"
    },
    {
      "bufferView": 0,
      "byteOffset": 647376,
      "componentType": 5125,
      "count": 91200,
      "type": "SCALAR"
    },
    {
      "bufferView": 2,
      "byteOffset": 4251000,
      "componentType": 5126,
      "count": 4265,
      "max": [
        330.0,
        33.03587341308594,
        440.0
      ],
      "min": [
        0.0,
        0.0,
        0.0
      ],
      "type": "VEC3"
    },
    {
      "bufferView": 2,
      "byteOffset": 4302180,
      "componentType": 5126,
      "count": 4265,
      "max": [
        1.0,
        1.0,
        1.0
      ],
      "min": [
        -1.0,
        -1.0,
        -1.0
      ],
      "type": "VEC3"
    },
    {
      "bufferView": 3,
      "byteOffset": 2834000,
      "componentType": 5126,
      "count": 4265,
      "max": [
        0.8627449870109558,
        0.9490200281143188,
        0.6901959776878357,
        1.0
      ],
      "min": [
        0.8627449870109558,
        0.9490200281143188,
        0.6901959776878357,
        1.0
      ],
      "type": "VEC4"
    },
    {
      "bufferView": 1,
      "byteOffset": 1417000,
      "componentType": 5126,
      "count": 4265,
      "max": [
        0.0,
        0.0
      ],
      "min": [
        0.0,
        0.0
      ],
      "type": "VEC2"
    },
    {
      "bufferView": 0,
      "byteOffset": 1012176,
      "componentType": 5125,
      "count": 19320,
      "type": "SCALAR"
    }
  ],
  "asset": {
    "extras": {
      "author": "Guido Salimbeni (https://sketchfab.com/3dsmithery)",
      "license": "CC-BY-4.0 (http://creativecommons.org/licenses/by/4.0/)",
      "source": "https://sketchfab.com/3d-models/jacket-gray-painting-ce05ebc8c620433887e4b864bcf5f577",
      "title": "Jacket Gray Painting"
    },
    "generator": "Sketchfab-12.66.0",
    "version": "2.0"
  },
  "bufferViews": [
    {
      "buffer": 0,
      "byteLength": 1089456,
      "name": "floatBufferViews",
      "target": 34963
    },
    {
      "buffer": 0,
      "byteLength": 1451120,
      "byteOffset": 1089456,
      "byteStride": 8,
      "name": "floatBufferViews",
      "target": 34962
    },
    {
      "buffer": 0,
      "byteLength": 4353360,
      "byteOffset": 2540576,
      "byteStride": 12,
      "name": "floatBufferViews",
      "target": 34962
    },
    {
      "buffer": 0,
      "byteLength": 2902240,
      "byteOffset": 6893936,
      "byteStride": 16,
      "name": "floatBufferViews",
      "target": 34962
    }
  ],
  "buffers": [
    {
      "byteLength": 9796176,
      "uri": "scene.bin"
    }
  ],
  "materials": [
    {
      "doubleSided": true,
      "name": "material_0",
      "pbrMetallicRoughness": {
        "baseColorFactor": [
          0.5,
          0.5,
          0.5,
          1.0
        ],
        "metallicFactor": 0.0,
        "roughnessFactor": 0.6
      }
    },
    {
      "doubleSided": true,
      "name": "material_1",
      "pbrMetallicRoughness": {
        "baseColorFactor": [
          0.5,
          0.5,
          0.5,
          1.0
        ],
        "metallicFactor": 0.0,
        "roughnessFactor": 0.6
      }
    },
    {
      "doubleSided": true,
      "name": "material_2",
      "pbrMetallicRoughness": {
        "baseColorFactor": [
          0.5,
          0.5,
          0.5,
          1.0
        ],
        "metallicFactor": 0.0,
        "roughnessFactor": 0.6
      }
    }
  ],
  "meshes": [
    {
      "name": "Object_0",
      "primitives": [
        {
          "attributes": {
            "COLOR_0": 2,
            "NORMAL": 1,
            "POSITION": 0,
            "TEXCOORD_0": 3
          },
          "indices": 4,
          "material": 2,
          "mode": 4
        }
      ]
    },
    {
      "name": "Object_1",
      "primitives": [
        {
          "attributes": {
            "COLOR_0": 7,
            "NORMAL": 6,
            "POSITION": 5,
            "TEXCOORD_0": 8
          },
          "indices": 9,
          "material": 2,
          "mode": 4
        }
      ]
    },
    {
      "name": "Object_2",
      "primitives": [
        {
          "attributes": {
            "COLOR_0": 12,
            "NORMAL": 11,
            "POSITION": 10,
            "TEXCOORD_0": 13
          },
          "indices": 14,
          "material": 2,
          "mode": 4
        }
      ]
    },
    {
      "name": "Object_3",
      "primitives": [
        {
          "attributes": {
            "COLOR_0": 17,
            "NORMAL": 16,
            "POSITION": 15,
            "TEXCOORD_0": 18
          },
          "indices": 19,
          "material": 1,
          "mode": 4
        }
      ]
    },
    {
      "name": "Object_4",
      "primitives": [
        {
          "attributes": {
            "COLOR_0": 22,
            "NORMAL": 21,
            "POSITION": 20,
            "TEXCOORD_0": 23
          },
          "indices": 24,
          "material": 0,
          "mode": 4
        }
      ]
    }
  ],
  "nodes": [
    {
      "children": [
        1
      ],
      "matrix": [
        1.0,
        0.0,
        0.0,
        0.0,
        0.0,
        -1.0,
        -2.220446049250313e-16,
        0.0,
        0.0,
        2.220446049250313e-16,
        -1.0,
        0.0,
        0.0,
        -203.48205566406256,
        236.51794433593744,
        1.0
      ],
      "name": "Sketchfab_model"
    },
    {
      "children": [
        2,
        3,
        4,
        5,
        6
      ],
      "matrix": [
        1.0,
        0.0,
        0.0,
        0.0,
        0.0,
        0.0,
        1.0,
        0.0,
        0.0,
        -1.0,
        0.0,
        0.0,
        0.0,
        0.0,
        0.0,
        1.0
      ],
      "name": "6be6154934fc4aa19fb702db5c7d0024.wrl.cleaner.gles"
    },
    {
      "mesh": 0,
      "name": "Object_2"
    },
    {
      "mesh": 1,
      "name": "Object_3"
    },
    {
      "mesh": 2,
      "name": "Object_4"
    },
    {
      "mesh": 3,
      "name": "Object_5"
    },
    {
      "mesh": 4,
      "name": "Object_6"
    }
  ],
  "scene": 0,
  "scenes": [
    {
      "name": "Sketchfab_Scene",
      "nodes": [
        0
      ]
    }
  ]
}
