{
  "accessors": [
    {
      "bufferView": 2,
      "componentType": 5126,
      "count": 4,
      "max": [
        167.02890014648438,
        167.02890014648438,
        0.0
      ],
      "min": [
        -167.02890014648438,
        -167.02890014648438,
        0.0
      ],
      "type": "VEC3"
    },
    {
      "bufferView": 2,
      "byteOffset": 48,
      "componentType": 5126,
      "count": 4,
      "max": [
        0.0,
        0.0,
        1.0
      ],
      "min": [
        0.0,
        0.0,
        1.0
      ],
      "type": "VEC3"
    },
    {
      "bufferView": 1,
      "componentType": 5126,
      "count": 4,
      "max": [
        1.0,
        1.0
      ],
      "min": [
        2.9802322387695313e-08,
        2.9802322387695313e-08
      ],
      "type": "VEC2"
    },
    {
      "bufferView": 0,
      "componentType": 5125,
      "count": 6,
      "type": "SCALAR"
    },
    {
      "bufferView": 2,
      "byteOffset": 96,
      "componentType": 5126,
      "count": 660,
      "max": [
        4.270808696746826,
        15.41586685180664,
        6.827094078063965
      ],
      "min": [
        -11.251289367675781,
        -15.415868759155273,
        -8.695003509521484
      ],
      "type": "VEC3"
    },
    {
      "bufferView": 2,
      "byteOffset": 8016,
      "componentType": 5126,
      "count": 660,
      "max": [
        0.9999733567237854,
        1.0,
        0.9999733567237854
      ],
      "min": [
        -0.9999734163284302,
        -1.0,
        -0.9999733567237854
      ],
      "type": "VEC3"
    },
    {
      "bufferView": 1,
      "byteOffset": 32,
      "componentType": 5126,
      "count": 660,
      "max": [
        0.9832323789596558,
        0.8425269722938538
      ],
      "min": [
        0.35236337780952454,
        0.021517768502235413
      ],
      "type": "VEC2"
    },
    {
      "bufferView": 1,
      "byteOffset": 5312,
      "componentType": 5126,
      "count": 660,
      "max": [
        0.9897270798683167,
        0.9615815877914429
      ],
      "min": [
        0.01981256902217865,
        0.027154013514518738
      ],
      "type": "VEC2"
    },
    {
      "bufferView": 0,
      "byteOffset": 24,
      "componentType": 5125,
      "count": 2688,
      "type": "SCALAR"
    },
    {
      "bufferView": 2,
      "byteOffset": 15936,
      "componentType": 5126,
      "count": 1065,
      "max": [
        13.701898574829102,
        123.14825439453125,
        18.645158767700195
      ],
      "min": [
        -20.390460968017578,
        15.41586685180664,
        -11.03752613067627
      ],
      "type": "VEC3"
    },
    {
      "bufferView": 2,
      "byteOffset": 28716,
      "componentType": 5126,
      "count": 1065,
      "max": [
        1.0,
        1.0,
        1.0
      ],
      "min": [
        -1.0,
        -1.0,
        -1.0
      ],
      "type": "VEC3"
    },
    {
      "bufferView": 1,
      "byteOffset": 10592,
      "componentType": 5126,
      "count": 1065,
      "max": [
        0.9832323789596558,
        0.9900014400482178
      ],
      "min": [
        0.26106175780296326,
        0.007695529609918594
      ],
      "type": "VEC2"
    },
    {
      "bufferView": 1,
      "byteOffset": 19112,
      "componentType": 5126,
      "count": 1065,
      "max": [
        0.9832323789596558,
        0.9900014400482178
      ],
      "min": [
        0.26106175780296326,
        0.007695529609918594
      ],
      "type": "VEC2"
    },
    {
      "bufferView": 0,
      "byteOffset": 10776,
      "componentType": 5125,
      "count": 3540,
      "type": "SCALAR"
    },
    {
      "bufferView": 2,
      "byteOffset": 41496,
      "componentType": 5126,
      "count": 385,
      "max": [
        -1.1559627056121826,
        127.61135864257813,
        1.3641493320465088
      ],
      "min": [
        -5.8734025955200195,
        122.86983489990234,
        -3.353290319442749
      ],
      "type": "VEC3"
    },
    {
      "bufferView": 2,
      "byteOffset": 46116,
      "componentType": 5126,
      "count": 385,
      "max": [
        1.0,
        1.0,
        1.0
      ],
      "min": [
        -1.0,
        -0.6633532643318176,
        -1.0
      ],
      "type": "VEC3"
    },
    {
      "bufferView": 1,
      "byteOffset": 27632,
      "componentType": 5126,
      "count": 385,
      "max": [
        0.4928857982158661,
        0.2624947428703308
      ],
      "min": [
        0.40363237261772156,
        0.1736944019794464
      ],
      "type": "VEC2"
    },
    {
      "bufferView": 1,
      "byteOffset": 30712,
      "componentType": 5126,
      "count": 385,
      "max": [
        0.4928857982158661,
        0.2624947428703308
      ],
      "min": [
        0.40363237261772156,
        0.1736944019794464
      ],
      "type": "VEC2"
    },
    {
      "bufferView": 0,
      "byteOffset": 24936,
      "componentType": 5125,
      "count": 2256,
      "type": "SCALAR"
    },
    {
      "bufferView": 2,
      "byteOffset": 50736,
      "componentType": 5126,
      "count": 1326,
      "max": [
        16.690383911132813,
        144.9145050048828,
        18.96984100341797
      ],
      "min": [
        -23.309619903564453,
        114.91450500488281,
        -20.951236724853516
      ],
      "type": "VEC3"
    },
    {
      "bufferView": 2,
      "byteOffset": 66648,
      "componentType": 5126,
      "count": 1326,
      "max": [
        1.0,
        1.0,
        0.998026967048645
      ],
      "min": [
        -1.0,
        -1.0,
        -0.9980269074440002
      ],
      "type": "VEC3"
    },
    {
      "bufferView": 1,
      "byteOffset": 33792,
      "componentType": 5126,
      "count": 1326,
      "max": [
        0.26023074984550476,
        0.9974920749664307
      ],
      "min": [
        0.0013859272003173828,
        0.007695500273257494
      ],
      "type": "VEC2"
    },
    {
      "bufferView": 1,
      "byteOffset": 44400,
      "componentType": 5126,
      "count": 1326,
      "max": [
        0.26023074984550476,
        0.9974920749664307
      ],
      "min": [
        0.0013859272003173828,
        0.007695500273257494
      ],
      "type": "VEC2"
    },
    {
      "bufferView": 0,
      "byteOffset": 33960,
      "componentType": 5125,
      "count": 4500,
      "type": "SCALAR"
    }
  ],
  "asset": {
    "extras": {
      "author": "MADE.COM (https://sketchfab.com/made-it)",
      "license": "CC-BY-NC-4.0 (http://creativecommons.org/licenses/by-nc/4.0/)",
      "source": "https://sketchfab.com/3d-models/rita-floor-lamp-brass-and-marble-a024483b3b00423cbf2d269f5120ccb2",
      "title": "Rita Floor Lamp, Brass and Marble"
    },
    "generator": "Sketchfab-12.68.0",
    "version": "2.0"
  },
  "bufferViews": [
    {
      "buffer": 0,
      "byteLength": 51960,
      "name": "floatBufferViews",
      "target": 34963
    },
    {
      "buffer": 0,
      "byteLength": 55008,
      "byteOffset": 51960,
      "byteStride": 8,
      "name": "floatBufferViews",
      "target": 34962
    },
    {
      "buffer": 0,
      "byteLength": 82560,
      "byteOffset": 106968,
      "byteStride": 12,
      "name": "floatBufferViews",
      "target": 34962
    }
  ],
  "buffers": [
    {
      "byteLength": 189528,
      "uri": "scene.bin"
    }
  ],
  "images": [
    {
      "uri": "textures/FLOOR_baseColor.png"
    },
    {
      "uri": "textures/MARBLE_baseColor.jpeg"
    }
  ],
  "materials": [
    {
      "alphaMode": "BLEND",
      "doubleSided": true,
      "name": "FLOOR",
      "pbrMetallicRoughness": {
        "baseColorFactor": [
          0.0,
          0.0,
          0.0,
          1.0
        ],
        "baseColorTexture": {
          "index": 0
        },
        "metallicFactor": 0.0,
        "roughnessFactor": 0.8929713596
      }
    },
    {
      "doubleSided": true,
      "name": "MARBLE",
      "pbrMetallicRoughness": {
        "baseColorTexture": {
          "index": 1
        },
        "metallicFactor": 0.0,
        "roughnessFactor": 0.5139100609756098
      }
    },
    {
      "doubleSided": true,
      "name": "BRASS",
      "pbrMetallicRoughness": {
        "baseColorFactor": [
          0.6435635529447916,
          0.44546705394161124,
          0.21640452711854685,
          1.0
        ],
        "roughnessFactor": 0.23342225609756098
      }
    },
    {
      "doubleSided": true,
      "emissiveFactor": [
        1.0,
        1.0,
        0.9246842565836898
      ],
      "name": "LIGHT_BULB",
      "pbrMetallicRoughness": {
        "baseColorFactor": [
          0.0,
          0.0,
          0.0,
          1.0
        ],
        "metallicFactor": 0.0,
        "roughnessFactor": 0.8929713596
      }
    },
    {
      "doubleSided": true,
      "name": "LAMP_SHADE",
      "pbrMetallicRoughness": {
        "baseColorFactor": [
          0.6994024055223932,
          0.6994024055223932,
          0.6994024055223932,
          1.0
        ],
        "metallicFactor": 0.0,
        "roughnessFactor": 0.8929713596
      }
    }
  ],
  "meshes": [
    {
      "name": "Plane001_FLOOR_0",
      "primitives": [
        {
          "attributes": {
            "NORMAL": 1,
            "POSITION": 0,
            "TEXCOORD_0": 2
          },
          "indices": 3,
          "material": 0,
          "mode": 4
        }
      ]
    },
    {
      "name": "Rita_Floor_Lamp_BlackMarble_and_Brass_MARBLE_0",
      "primitives": [
        {
          "attributes": {
            "NORMAL": 5,
            "POSITION": 4,
            "TEXCOORD_0": 6,
            "TEXCOORD_1": 7
          },
          "indices": 8,
          "material": 1,
          "mode": 4
        }
      ]
    },
    {
      "name": "Rita_Floor_Lamp_BlackMarble_and_Brass_BRASS_0",
      "primitives": [
        {
          "attributes": {
            "NORMAL": 10,
            "POSITION": 9,
            "TEXCOORD_0": 11,
            "TEXCOORD_1": 12
          },
          "indices": 13,
          "material": 2,
          "mode": 4
        }
      ]
    },
    {
      "name": "Rita_Floor_Lamp_BlackMarble_and_Brass_LIGHT_BULB_0",
      "primitives": [
        {
          "attributes": {
            "NORMAL": 15,
            "POSITION": 14,
            "TEXCOORD_0": 16,
            "TEXCOORD_1": 17
          },
          "indices": 18,
          "material": 3,
          "mode": 4
        }
      ]
    },
    {
      "name": "Rita_Floor_Lamp_BlackMarble_and_Brass_LAMP_SHADE_0",
      "primitives": [
        {
          "attributes": {
            "NORMAL": 20,
            "POSITION": 19,
            "TEXCOORD_0": 21,
            "TEXCOORD_1": 22
          },
          "indices": 23,
          "material": 4,
          "mode": 4
        }
      ]
    }
  ],
  "nodes": [
    {
      "children": [
        1
      ],
      "matrix": [
        1.0,
        0.0,
        0.0,
        0.0,
        0.0,
        2.220446049250313e-16,
        -1.0,
        0.0,
        0.0,
        1.0,
        2.220446049250313e-16,
        0.0,
        0.0,
        0.0,
        0.0,
        1.0
      ],
      "name": "Sketchfab_model"
    },
    {
      "children": [
        2
      ],
      "matrix": [
        1.0,
        0.0,
        0.0,
        0.0,
        0.0,
        0.0,
        1.0,
        0.0,
        0.0,
        -1.0,
        0.0,
        0.0,
        0.0,
        0.0,
        0.0,
        1.0
      ],
      "name": "464c29be82de4e99b36e85e7b719759a.fbx"
    },
    {
      "children": [
        3,
        5
      ],
      "name": "RootNode"
    },
    {
      "children": [
        4
      ],
      "matrix": [
        1.0,
        0.0,
        0.0,
        0.0,
        0.0,
        2.220446049250313e-16,
        -1.0,
        0.0,
        0.0,
        1.0,
        2.220446049250313e-16,
        0.0,
        0.0,
        0.0,
        0.0,
        1.0
      ],
      "name": "Plane001"
    },
    {
      "mesh": 0,
      "name": "Plane001_FLOOR_0"
    },
    {
      "children": [
        6
      ],
      "matrix": [
        1.0,
        0.0,
        0.0,
        0.0,
        0.0,
        0.9999999999999867,
        1.6292068494294582e-07,
        0.0,
        0.0,
        -1.6292068494294582e-07,
        0.9999999999999867,
        0.0,
        0.0,
        0.18794700503349304,
        8.215424784907555e-09,
        1.0
      ],
      "name": "Rita_Floor_Lamp_BlackMarble_and_Brass"
    },
    {
      "children": [
        7,
        8,
        9,
        10
      ],
      "matrix": [
        1.0,
        0.0,
        -0.0,
        0.0,
        0.0,
        1.0,
        0.0,
        0.0,
        0.0,
        0.0,
        1.0,
        0.0,
        3.4902400970458984,
        15.41586685180664,
        0.9339531064033508,
        1.0
      ],
      "name": "Object_6"
    },
    {
      "mesh": 1,
      "name": "Rita_Floor_Lamp_BlackMarble_and_Brass_MARBLE_0"
    },
    {
      "mesh": 2,
      "name": "Rita_Floor_Lamp_BlackMarble_and_Brass_BRASS_0"
    },
    {
      "mesh": 3,
      "name": "Rita_Floor_Lamp_BlackMarble_and_Brass_LIGHT_BULB_0"
    },
    {
      "mesh": 4,
      "name": "Rita_Floor_Lamp_BlackMarble_and_Brass_LAMP_SHADE_0"
    }
  ],
  "samplers": [
    {
      "magFilter": 9729,
      "minFilter": 9987,
      "wrapS": 10497,
      "wrapT": 10497
    }
  ],
  "scene": 0,
  "scenes": [
    {
      "name": "Sketchfab_Scene",
      "nodes": [
        0
      ]
    }
  ],
  "textures": [
    {
      "sampler": 0,
      "source": 0
    },
    {
      "sampler": 0,
      "source": 1
    }
  ]
}
