{
  "accessors": [
    {
      "bufferView": 2,
      "componentType": 5126,
      "count": 41303,
      "max": [
        12.298379898071289,
        1.9338300228118896,
        30.16590118408203
      ],
      "min": [
        -12.206225395202637,
        -0.9403409957885742,
        -0.161872997879982
      ],
      "type": "VEC3"
    },
    {
      "bufferView": 2,
      "byteOffset": 495636,
      "componentType": 5126,
      "count": 41303,
      "max": [
        0.9999992251396179,
        0.9992904663085938,
        0.9999996423721313
      ],
      "min": [
        -0.9999930262565613,
        -0.9999996423721313,
        -0.9999992251396179
      ],
      "type": "VEC3"
    },
    {
      "bufferView": 3,
      "componentType": 5126,
      "count": 41303,
      "max": [
        0.9999892711639404,
        0.9999961256980896,
        0.9967927932739258,
        1.0
      ],
      "min": [
        -0.9998648762702942,
        -0.9999945759773254,
        -0.9999964237213135,
        -1.0
      ],
      "type": "VEC4"
    },
    {
      "bufferView": 1,
      "componentType": 5126,
      "count": 41303,
      "max": [
        0.9980400204658508,
        0.863070011138916
      ],
      "min": [
        0.0019499999471008778,
        0.0019499999471008778
      ],
      "type": "VEC2"
    },
    {
      "bufferView": 0,
      "componentType": 5125,
      "count": 241212,
      "type": "SCALAR"
    }
  ],
  "asset": {
    "extras": {
      "author": "rz (https://sketchfab.com/rz)",
      "license": "CC-BY-NC-4.0 (http://creativecommons.org/licenses/by-nc/4.0/)",
      "source": "https://sketchfab.com/3d-models/a-painting-about-goat-95153de357b24a179304550189a6094e",
      "title": "A painting about Goat"
    },
    "generator": "Sketchfab-12.68.0",
    "version": "2.0"
  },
  "bufferViews": [
    {
      "buffer": 0,
      "byteLength": 964848,
      "name": "floatBufferViews",
      "target": 34963
    },
    {
      "buffer": 0,
      "byteLength": 330424,
      "byteOffset": 964848,
      "byteStride": 8,
      "name": "floatBufferViews",
      "target": 34962
    },
    {
      "buffer": 0,
      "byteLength": 991272,
      "byteOffset": 1295272,
      "byteStride": 12,
      "name": "floatBufferViews",
      "target": 34962
    },
    {
      "buffer": 0,
      "byteLength": 660848,
      "byteOffset": 2286544,
      "byteStride": 16,
      "name": "floatBufferViews",
      "target": 34962
    }
  ],
  "buffers": [
    {
      "byteLength": 2947392,
      "uri": "scene.bin"
    }
  ],
  "images": [
    {
      "uri": "textures/kdefaultMat_baseColor.jpeg"
    },
    {
      "uri": "textures/kdefaultMat_normal.jpeg"
    }
  ],
  "materials": [
    {
      "doubleSided": true,
      "name": "kdefaultMat",
      "normalTexture": {
        "index": 1
      },
      "pbrMetallicRoughness": {
        "baseColorTexture": {
          "index": 0
        },
        "metallicFactor": 0.0,
        "roughnessFactor": 0.6
      }
    }
  ],
  "meshes": [
    {
      "name": "Object_0",
      "primitives": [
        {
          "attributes": {
            "NORMAL": 1,
            "POSITION": 0,
            "TANGENT": 2,
            "TEXCOORD_0": 3
          },
          "indices": 4,
          "material": 0,
          "mode": 4
        }
      ]
    }
  ],
  "nodes": [
    {
      "children": [
        1
      ],
      "matrix": [
        1.0,
        0.0,
        0.0,
        0.0,
        0.0,
        2.220446049250313e-16,
        -1.0,
        0.0,
        0.0,
        1.0,
        2.220446049250313e-16,
        0.0,
        0.0,
        0.0,
        0.0,
        1.0
      ],
      "name": "Sketchfab_model"
    },
    {
      "children": [
        2
      ],
      "name": "40k.OBJ.cleaner.materialmerger.gles"
    },
    {
      "mesh": 0,
      "name": "Object_2"
    }
  ],
  "samplers": [
    {
      "magFilter": 9729,
      "minFilter": 9987,
      "wrapS": 10497,
      "wrapT": 10497
    }
  ],
  "scene": 0,
  "scenes": [
    {
      "name": "Sketchfab_Scene",
      "nodes": [
        0
      ]
    }
  ],
  "textures": [
    {
      "sampler": 0,
      "source": 0
    },
    {
      "sampler": 0,
      "source": 1
    }
  ]
}
