{
  "accessors": [
    {
      "bufferView": 2,
      "componentType": 5126,
      "count": 4,
      "max": [
        167.02890014648438,
        167.02890014648438,
        0.0
      ],
      "min": [
        -167.02890014648438,
        -167.02890014648438,
        0.0
      ],
      "type": "VEC3"
    },
    {
      "bufferView": 2,
      "byteOffset": 48,
      "componentType": 5126,
      "count": 4,
      "max": [
        0.0,
        0.0,
        1.0
      ],
      "min": [
        0.0,
        0.0,
        1.0
      ],
      "type": "VEC3"
    },
    {
      "bufferView": 1,
      "componentType": 5126,
      "count": 4,
      "max": [
        1.0,
        1.0
      ],
      "min": [
        2.9802322387695313e-08,
        2.9802322387695313e-08
      ],
      "type": "VEC2"
    },
    {
      "bufferView": 0,
      "componentType": 5125,
      "count": 6,
      "type": "SCALAR"
    },
    {
      "bufferView": 2,
      "byteOffset": 96,
      "componentType": 5126,
      "count": 1828,
      "max": [
        6.482046127319336,
        6.685274600982666,
        2.4927642345428467
      ],
      "min": [
        -6.922471046447754,
        -6.645811557769775,
        -81.16089630126953
      ],
      "type": "VEC3"
    },
    {
      "bufferView": 2,
      "byteOffset": 22032,
      "componentType": 5126,
      "count": 1828,
      "max": [
        1.0,
        0.994521975517273,
        1.0
      ],
      "min": [
        -1.0,
        -0.9945220351219177,
        -1.0
      ],
      "type": "VEC3"
    },
    {
      "bufferView": 1,
      "byteOffset": 32,
      "componentType": 5126,
      "count": 1828,
      "max": [
        2.3422327041625977,
        2.411437511444092
      ],
      "min": [
        -1.351942777633667,
        -1.5106663703918457
      ],
      "type": "VEC2"
    },
    {
      "bufferView": 1,
      "byteOffset": 14656,
      "componentType": 5126,
      "count": 1828,
      "max": [
        0.9558737277984619,
        0.9748490452766418
      ],
      "min": [
        0.03814776986837387,
        0.0005000000237487257
      ],
      "type": "VEC2"
    },
    {
      "bufferView": 0,
      "byteOffset": 24,
      "componentType": 5125,
      "count": 8994,
      "type": "SCALAR"
    },
    {
      "bufferView": 2,
      "byteOffset": 43968,
      "componentType": 5126,
      "count": 304,
      "max": [
        0.8911334276199341,
        0.9171174168586731,
        1.9073486328125e-06
      ],
      "min": [
        -0.9036277532577515,
        -0.8776437640190125,
        -59.71589660644531
      ],
      "type": "VEC3"
    },
    {
      "bufferView": 2,
      "byteOffset": 47616,
      "componentType": 5126,
      "count": 304,
      "max": [
        1.0,
        1.0,
        1.0
      ],
      "min": [
        -1.0,
        -1.0,
        -1.0
      ],
      "type": "VEC3"
    },
    {
      "bufferView": 1,
      "byteOffset": 29280,
      "componentType": 5126,
      "count": 304,
      "max": [
        0.9947547912597656,
        0.7088410258293152
      ],
      "min": [
        0.0005000095115974545,
        0.0005000000237487257
      ],
      "type": "VEC2"
    },
    {
      "bufferView": 1,
      "byteOffset": 31712,
      "componentType": 5126,
      "count": 304,
      "max": [
        2.4987430572509766,
        1.3406598567962646
      ],
      "min": [
        -1.5034884214401245,
        -1.5106663703918457
      ],
      "type": "VEC2"
    },
    {
      "bufferView": 0,
      "byteOffset": 36000,
      "componentType": 5125,
      "count": 1068,
      "type": "SCALAR"
    },
    {
      "bufferView": 2,
      "byteOffset": 51264,
      "componentType": 5126,
      "count": 1254,
      "max": [
        2.6634767055511475,
        2.0978946685791016,
        -80.5175552368164
      ],
      "min": [
        -3.1054282188415527,
        -1.8475332260131836,
        -89.44717407226563
      ],
      "type": "VEC3"
    },
    {
      "bufferView": 2,
      "byteOffset": 66312,
      "componentType": 5126,
      "count": 1254,
      "max": [
        0.9930108189582825,
        0.9959325790405273,
        0.971895694732666
      ],
      "min": [
        -0.9930107593536377,
        -0.9968862533569336,
        -0.9900103807449341
      ],
      "type": "VEC3"
    },
    {
      "bufferView": 1,
      "byteOffset": 34144,
      "componentType": 5126,
      "count": 1254,
      "max": [
        0.49264711141586304,
        0.6106906533241272
      ],
      "min": [
        0.0005000075907446444,
        0.3722716271877289
      ],
      "type": "VEC2"
    },
    {
      "bufferView": 1,
      "byteOffset": 44176,
      "componentType": 5126,
      "count": 1254,
      "max": [
        0.4775799512863159,
        0.9455695152282715
      ],
      "min": [
        -1.5034884214401245,
        -0.0141524076461792
      ],
      "type": "VEC2"
    },
    {
      "bufferView": 0,
      "byteOffset": 40272,
      "componentType": 5125,
      "count": 6720,
      "type": "SCALAR"
    },
    {
      "bufferView": 2,
      "byteOffset": 81360,
      "componentType": 5126,
      "count": 2046,
      "max": [
        12.128976821899414,
        12.295530319213867,
        -69.62891387939453
      ],
      "min": [
        -12.557861328125,
        -12.256071090698242,
        -95.8578109741211
      ],
      "type": "VEC3"
    },
    {
      "bufferView": 2,
      "byteOffset": 105912,
      "componentType": 5126,
      "count": 2046,
      "max": [
        0.9999502301216125,
        0.9944724440574646,
        0.9813215732574463
      ],
      "min": [
        -0.9999502301216125,
        -0.9944724440574646,
        -0.9893910884857178
      ],
      "type": "VEC3"
    },
    {
      "bufferView": 1,
      "byteOffset": 54208,
      "componentType": 5126,
      "count": 2046,
      "max": [
        0.8168484568595886,
        0.999500036239624
      ],
      "min": [
        0.0005000000237487257,
        0.0005000000237487257
      ],
      "type": "VEC2"
    },
    {
      "bufferView": 1,
      "byteOffset": 70576,
      "componentType": 5126,
      "count": 2046,
      "max": [
        1.7826064825057983,
        2.5106663703918457
      ],
      "min": [
        -1.5034884214401245,
        -1.5106663703918457
      ],
      "type": "VEC2"
    },
    {
      "bufferView": 0,
      "byteOffset": 67152,
      "componentType": 5125,
      "count": 11160,
      "type": "SCALAR"
    }
  ],
  "asset": {
    "extras": {
      "author": "MADE.COM (https://sketchfab.com/made-it)",
      "license": "CC-BY-NC-4.0 (http://creativecommons.org/licenses/by-nc/4.0/)",
      "source": "https://sketchfab.com/3d-models/temple-pendant-light-and-002-plumen-bulb-brass-0a868fb5784348a3955607c8e8dd52fe",
      "title": "Temple Pendant Light And 002 Plumen Bulb, Brass"
    },
    "generator": "Sketchfab-12.68.0",
    "version": "2.0"
  },
  "bufferViews": [
    {
      "buffer": 0,
      "byteLength": 111792,
      "name": "floatBufferViews",
      "target": 34963
    },
    {
      "buffer": 0,
      "byteLength": 86944,
      "byteOffset": 111792,
      "byteStride": 8,
      "name": "floatBufferViews",
      "target": 34962
    },
    {
      "buffer": 0,
      "byteLength": 130464,
      "byteOffset": 198736,
      "byteStride": 12,
      "name": "floatBufferViews",
      "target": 34962
    }
  ],
  "buffers": [
    {
      "byteLength": 329200,
      "uri": "scene.bin"
    }
  ],
  "extensionsUsed": [
    "KHR_materials_transmission"
  ],
  "images": [
    {
      "uri": "textures/FLOOR_baseColor.png"
    },
    {
      "uri": "textures/BRASS_metallicRoughness.png"
    },
    {
      "uri": "textures/GLASS_metallicRoughness.png"
    }
  ],
  "materials": [
    {
      "alphaMode": "BLEND",
      "doubleSided": true,
      "name": "FLOOR",
      "pbrMetallicRoughness": {
        "baseColorFactor": [
          0.0,
          0.0,
          0.0,
          1.0
        ],
        "baseColorTexture": {
          "index": 0
        },
        "metallicFactor": 0.0
      }
    },
    {
      "doubleSided": true,
      "name": "BRASS",
      "occlusionTexture": {
        "index": 1
      },
      "pbrMetallicRoughness": {
        "baseColorFactor": [
          1.0,
          0.7159255518,
          0.3363895195,
          1.0
        ],
        "metallicFactor": 0.7395198171,
        "metallicRoughnessTexture": {
          "index": 1
        },
        "roughnessFactor": 0.1358612805
      }
    },
    {
      "doubleSided": true,
      "name": "BLACK_PLASTIC",
      "pbrMetallicRoughness": {
        "baseColorFactor": [
          0.00392157,
          0.00392157,
          0.00392157,
          1.0
        ],
        "metallicFactor": 0.0,
        "roughnessFactor": 0.4651295732
      }
    },
    {
      "doubleSided": true,
      "emissiveFactor": [
        1.0,
        1.0,
        1.0
      ],
      "extensions": {
        "KHR_materials_transmission": {
          "transmissionFactor": 0.0
        }
      },
      "name": "LIGHT_BULB",
      "pbrMetallicRoughness": {
        "baseColorFactor": [
          1.0,
          0.08602333009999993,
          0.0006849502999999958,
          1.0
        ],
        "metallicFactor": 0.0,
        "roughnessFactor": 0.8929713596
      }
    },
    {
      "alphaMode": "BLEND",
      "doubleSided": true,
      "name": "GLASS",
      "occlusionTexture": {
        "index": 2
      },
      "pbrMetallicRoughness": {
        "baseColorFactor": [
          0.6773299895,
          0.6753520658,
          0.7325329855,
          0.1968368902
        ],
        "metallicFactor": 0.1846417683,
        "metallicRoughnessTexture": {
          "index": 2
        },
        "roughnessFactor": 0.0261051829
      }
    }
  ],
  "meshes": [
    {
      "name": "Plane001_FLOOR_0",
      "primitives": [
        {
          "attributes": {
            "NORMAL": 1,
            "POSITION": 0,
            "TEXCOORD_0": 2
          },
          "indices": 3,
          "material": 0,
          "mode": 4
        }
      ]
    },
    {
      "name": "Temple Pendant Light and 002 Plumen Bulb_BRASS_0",
      "primitives": [
        {
          "attributes": {
            "NORMAL": 5,
            "POSITION": 4,
            "TEXCOORD_0": 6,
            "TEXCOORD_1": 7
          },
          "indices": 8,
          "material": 1,
          "mode": 4
        }
      ]
    },
    {
      "name": "Temple Pendant Light and 002 Plumen Bulb_BLACK_PLASTIC_0",
      "primitives": [
        {
          "attributes": {
            "NORMAL": 10,
            "POSITION": 9,
            "TEXCOORD_0": 11,
            "TEXCOORD_1": 12
          },
          "indices": 13,
          "material": 2,
          "mode": 4
        }
      ]
    },
    {
      "name": "Temple Pendant Light and 002 Plumen Bulb_LIGHT_BULB_0",
      "primitives": [
        {
          "attributes": {
            "NORMAL": 15,
            "POSITION": 14,
            "TEXCOORD_0": 16,
            "TEXCOORD_1": 17
          },
          "indices": 18,
          "material": 3,
          "mode": 4
        }
      ]
    },
    {
      "name": "Temple Pendant Light and 002 Plumen Bulb_GLASS_0",
      "primitives": [
        {
          "attributes": {
            "NORMAL": 20,
            "POSITION": 19,
            "TEXCOORD_0": 21,
            "TEXCOORD_1": 22
          },
          "indices": 23,
          "material": 4,
          "mode": 4
        }
      ]
    }
  ],
  "nodes": [
    {
      "children": [
        1
      ],
      "matrix": [
        1.0,
        0.0,
        0.0,
        0.0,
        0.0,
        2.220446049250313e-16,
        -1.0,
        0.0,
        0.0,
        1.0,
        2.220446049250313e-16,
        0.0,
        0.0,
        0.0,
        0.0,
        1.0
      ],
      "name": "Sketchfab_model"
    },
    {
      "children": [
        2
      ],
      "matrix": [
        1.0,
        0.0,
        0.0,
        0.0,
        0.0,
        0.0,
        1.0,
        0.0,
        0.0,
        -1.0,
        0.0,
        0.0,
        0.0,
        0.0,
        0.0,
        1.0
      ],
      "name": "43ee5c5a97ea477586c9287c73e06dbb.fbx"
    },
    {
      "children": [
        3,
        5
      ],
      "name": "RootNode"
    },
    {
      "children": [
        4
      ],
      "matrix": [
        1.0,
        0.0,
        0.0,
        0.0,
        0.0,
        1.5099580275013125e-07,
        0.9999999999999887,
        0.0,
        0.0,
        -0.9999999999999887,
        1.5099580275013125e-07,
        0.0,
        0.0,
        110.960205078125,
        6.936577392480103e-07,
        1.0
      ],
      "name": "Plane001"
    },
    {
      "mesh": 0,
      "name": "Plane001_FLOOR_0"
    },
    {
      "children": [
        6
      ],
      "matrix": [
        -0.9999999999999885,
        -1.5099580265055072e-07,
        -1.2246469849340659e-16,
        0.0,
        -2.2922197076437284e-14,
        1.5099580252808664e-07,
        0.9999999999999885,
        0.0,
        -1.5099580265054897e-07,
        0.9999999999999771,
        -1.5099580252808664e-07,
        0.0,
        -1.7628231048583984,
        110.85623168945313,
        -0.019736381247639656,
        1.0
      ],
      "name": "Temple Pendant Light and 002 Plumen Bulb"
    },
    {
      "children": [
        7,
        8,
        9,
        10
      ],
      "matrix": [
        1.0,
        0.0,
        -0.0,
        0.0,
        0.0,
        1.0,
        0.0,
        0.0,
        0.0,
        0.0,
        1.0,
        0.0,
        0.0,
        -1.88198697514963e-07,
        -2.492767333984375,
        1.0
      ],
      "name": "Object_6"
    },
    {
      "mesh": 1,
      "name": "Temple Pendant Light and 002 Plumen Bulb_BRASS_0"
    },
    {
      "mesh": 2,
      "name": "Temple Pendant Light and 002 Plumen Bulb_BLACK_PLASTIC_0"
    },
    {
      "mesh": 3,
      "name": "Temple Pendant Light and 002 Plumen Bulb_LIGHT_BULB_0"
    },
    {
      "mesh": 4,
      "name": "Temple Pendant Light and 002 Plumen Bulb_GLASS_0"
    }
  ],
  "samplers": [
    {
      "magFilter": 9729,
      "minFilter": 9987,
      "wrapS": 10497,
      "wrapT": 10497
    }
  ],
  "scene": 0,
  "scenes": [
    {
      "name": "Sketchfab_Scene",
      "nodes": [
        0
      ]
    }
  ],
  "textures": [
    {
      "sampler": 0,
      "source": 0
    },
    {
      "sampler": 0,
      "source": 1
    },
    {
      "sampler": 0,
      "source": 2
    }
  ]
}
