{
  "accessors": [
    {
      "bufferView": 2,
      "componentType": 5126,
      "count": 4,
      "max": [
        167.02890014648438,
        167.02890014648438,
        0.0
      ],
      "min": [
        -167.02890014648438,
        -167.02890014648438,
        0.0
      ],
      "type": "VEC3"
    },
    {
      "bufferView": 2,
      "byteOffset": 48,
      "componentType": 5126,
      "count": 4,
      "max": [
        0.0,
        0.0,
        1.0
      ],
      "min": [
        0.0,
        0.0,
        1.0
      ],
      "type": "VEC3"
    },
    {
      "bufferView": 1,
      "componentType": 5126,
      "count": 4,
      "max": [
        1.0,
        1.0
      ],
      "min": [
        2.9802322387695313e-08,
        2.9802322387695313e-08
      ],
      "type": "VEC2"
    },
    {
      "bufferView": 0,
      "componentType": 5125,
      "count": 6,
      "type": "SCALAR"
    },
    {
      "bufferView": 2,
      "byteOffset": 96,
      "componentType": 5126,
      "count": 2628,
      "max": [
        18.515487670898438,
        18.524232864379883,
        -77.96846008300781
      ],
      "min": [
        -18.597013473510742,
        -18.588272094726563,
        -109.27262878417969
      ],
      "type": "VEC3"
    },
    {
      "bufferView": 2,
      "byteOffset": 31632,
      "componentType": 5126,
      "count": 2628,
      "max": [
        1.0,
        1.0,
        1.0
      ],
      "min": [
        -1.0,
        -0.9999528527259827,
        -1.0
      ],
      "type": "VEC3"
    },
    {
      "bufferView": 1,
      "byteOffset": 32,
      "componentType": 5126,
      "count": 2628,
      "max": [
        0.9736049175262451,
        0.3645000457763672
      ],
      "min": [
        0.0005000000237487257,
        0.02754300832748413
      ],
      "type": "VEC2"
    },
    {
      "bufferView": 1,
      "byteOffset": 21056,
      "componentType": 5126,
      "count": 2628,
      "max": [
        -0.7253878116607666,
        2.0299911499023438
      ],
      "min": [
        -2.48148775100708,
        -2.649627923965454
      ],
      "type": "VEC2"
    },
    {
      "bufferView": 0,
      "byteOffset": 24,
      "componentType": 5125,
      "count": 9936,
      "type": "SCALAR"
    },
    {
      "bufferView": 2,
      "byteOffset": 63168,
      "componentType": 5126,
      "count": 1466,
      "max": [
        16.930580139160156,
        16.930572509765625,
        -4.66915935248835e-06
      ],
      "min": [
        -16.93056869506836,
        -17.630170822143555,
        -88.20394897460938
      ],
      "type": "VEC3"
    },
    {
      "bufferView": 2,
      "byteOffset": 80760,
      "componentType": 5126,
      "count": 1466,
      "max": [
        1.0,
        1.0,
        1.0
      ],
      "min": [
        -1.0,
        -1.0,
        -1.0
      ],
      "type": "VEC3"
    },
    {
      "bufferView": 1,
      "byteOffset": 42080,
      "componentType": 5126,
      "count": 1466,
      "max": [
        0.9942127466201782,
        0.9890559315681458
      ],
      "min": [
        0.0005000000237487257,
        0.0005000000237487257
      ],
      "type": "VEC2"
    },
    {
      "bufferView": 1,
      "byteOffset": 53808,
      "componentType": 5126,
      "count": 1466,
      "max": [
        3.5662150382995605,
        3.64449405670166
      ],
      "min": [
        -2.663317918777466,
        -2.649627923965454
      ],
      "type": "VEC2"
    },
    {
      "bufferView": 0,
      "byteOffset": 39768,
      "componentType": 5125,
      "count": 5412,
      "type": "SCALAR"
    },
    {
      "bufferView": 2,
      "byteOffset": 98352,
      "componentType": 5126,
      "count": 434,
      "max": [
        2.2809619903564453,
        2.3878111839294434,
        -86.35517883300781
      ],
      "min": [
        -2.436478614807129,
        -2.3296284675598145,
        -91.0967025756836
      ],
      "type": "VEC3"
    },
    {
      "bufferView": 2,
      "byteOffset": 103560,
      "componentType": 5126,
      "count": 434,
      "max": [
        1.0,
        1.0,
        0.6633666753768921
      ],
      "min": [
        -1.0,
        -1.0,
        -1.0
      ],
      "type": "VEC3"
    },
    {
      "bufferView": 1,
      "byteOffset": 65536,
      "componentType": 5126,
      "count": 434,
      "max": [
        0.9994999766349792,
        0.7398585677146912
      ],
      "min": [
        0.004363285377621651,
        0.6147626042366028
      ],
      "type": "VEC2"
    },
    {
      "bufferView": 1,
      "byteOffset": 69008,
      "componentType": 5126,
      "count": 434,
      "max": [
        -0.7437417507171631,
        3.3742055892944336
      ],
      "min": [
        -1.935997724533081,
        2.350698947906494
      ],
      "type": "VEC2"
    },
    {
      "bufferView": 0,
      "byteOffset": 61416,
      "componentType": 5125,
      "count": 2256,
      "type": "SCALAR"
    }
  ],
  "asset": {
    "extras": {
      "author": "MADE.COM (https://sketchfab.com/made-it)",
      "license": "CC-BY-NC-4.0 (http://creativecommons.org/licenses/by-nc/4.0/)",
      "source": "https://sketchfab.com/3d-models/tuli-pendant-shade-white-29d8cbaf7c0f4f2895f1e03f944ea50b",
      "title": "Tuli Pendant Shade, White"
    },
    "generator": "Sketchfab-12.68.0",
    "version": "2.0"
  },
  "bufferViews": [
    {
      "buffer": 0,
      "byteLength": 70440,
      "name": "floatBufferViews",
      "target": 34963
    },
    {
      "buffer": 0,
      "byteLength": 72480,
      "byteOffset": 70440,
      "byteStride": 8,
      "name": "floatBufferViews",
      "target": 34962
    },
    {
      "buffer": 0,
      "byteLength": 108768,
      "byteOffset": 142920,
      "byteStride": 12,
      "name": "floatBufferViews",
      "target": 34962
    }
  ],
  "buffers": [
    {
      "byteLength": 251688,
      "uri": "scene.bin"
    }
  ],
  "images": [
    {
      "uri": "textures/FLOOR_baseColor.png"
    },
    {
      "uri": "textures/LAMP_SHADE_baseColor.jpeg"
    },
    {
      "uri": "textures/LAMP_SHADE_metallicRoughness.png"
    }
  ],
  "materials": [
    {
      "alphaMode": "BLEND",
      "doubleSided": true,
      "name": "FLOOR",
      "pbrMetallicRoughness": {
        "baseColorFactor": [
          0.0,
          0.0,
          0.0,
          1.0
        ],
        "baseColorTexture": {
          "index": 0
        },
        "metallicFactor": 0.0
      }
    },
    {
      "doubleSided": true,
      "name": "LAMP_SHADE",
      "occlusionTexture": {
        "index": 2
      },
      "pbrMetallicRoughness": {
        "baseColorTexture": {
          "index": 1
        },
        "metallicFactor": 0.0,
        "metallicRoughnessTexture": {
          "index": 2
        },
        "roughnessFactor": 0.8929713596
      }
    },
    {
      "doubleSided": true,
      "name": "BLACK",
      "pbrMetallicRoughness": {
        "baseColorTexture": {
          "index": 1
        },
        "metallicFactor": 0.0,
        "roughnessFactor": 0.3126905488
      }
    },
    {
      "doubleSided": true,
      "emissiveFactor": [
        1.0,
        1.0,
        1.0
      ],
      "name": "LIGHT_BULB",
      "pbrMetallicRoughness": {
        "baseColorFactor": [
          1.0,
          0.4695515894,
          0.2181595223,
          1.0
        ],
        "metallicFactor": 0.0,
        "roughnessFactor": 0.2029344512
      }
    }
  ],
  "meshes": [
    {
      "name": "Plane001_FLOOR_0",
      "primitives": [
        {
          "attributes": {
            "NORMAL": 1,
            "POSITION": 0,
            "TEXCOORD_0": 2
          },
          "indices": 3,
          "material": 0,
          "mode": 4
        }
      ]
    },
    {
      "name": "Tuli_Cluster_Pendant_Light_GreyTones_LAMP_SHADE_0",
      "primitives": [
        {
          "attributes": {
            "NORMAL": 5,
            "POSITION": 4,
            "TEXCOORD_0": 6,
            "TEXCOORD_1": 7
          },
          "indices": 8,
          "material": 1,
          "mode": 4
        }
      ]
    },
    {
      "name": "Tuli_Cluster_Pendant_Light_GreyTones_BLACK_0",
      "primitives": [
        {
          "attributes": {
            "NORMAL": 10,
            "POSITION": 9,
            "TEXCOORD_0": 11,
            "TEXCOORD_1": 12
          },
          "indices": 13,
          "material": 2,
          "mode": 4
        }
      ]
    },
    {
      "name": "Tuli_Cluster_Pendant_Light_GreyTones_LIGHT_BULB_0",
      "primitives": [
        {
          "attributes": {
            "NORMAL": 15,
            "POSITION": 14,
            "TEXCOORD_0": 16,
            "TEXCOORD_1": 17
          },
          "indices": 18,
          "material": 3,
          "mode": 4
        }
      ]
    }
  ],
  "nodes": [
    {
      "children": [
        1
      ],
      "matrix": [
        1.0,
        0.0,
        0.0,
        0.0,
        0.0,
        2.220446049250313e-16,
        -1.0,
        0.0,
        0.0,
        1.0,
        2.220446049250313e-16,
        0.0,
        0.0,
        0.0,
        0.0,
        1.0
      ],
      "name": "Sketchfab_model"
    },
    {
      "children": [
        2
      ],
      "matrix": [
        1.0,
        0.0,
        0.0,
        0.0,
        0.0,
        0.0,
        1.0,
        0.0,
        0.0,
        -1.0,
        0.0,
        0.0,
        0.0,
        0.0,
        0.0,
        1.0
      ],
      "name": "bd62e350f38547c699cfd56567505584.fbx"
    },
    {
      "children": [
        3,
        5
      ],
      "name": "RootNode"
    },
    {
      "children": [
        4
      ],
      "matrix": [
        1.0,
        0.0,
        0.0,
        0.0,
        0.0,
        3.894143673077721e-07,
        0.9999999999999243,
        0.0,
        0.0,
        -0.9999999999999243,
        3.894143673077721e-07,
        0.0,
        0.0,
        117.55470275878906,
        0.03200915828347206,
        1.0
      ],
      "name": "Plane001"
    },
    {
      "mesh": 0,
      "name": "Plane001_FLOOR_0"
    },
    {
      "children": [
        6,
        7,
        8
      ],
      "matrix": [
        -0.9999999999999849,
        1.5099580265055016e-07,
        8.742277669593944e-08,
        0.0,
        8.742282589661495e-08,
        3.2584136955282617e-07,
        0.9999999999999432,
        0.0,
        1.5099577416458426e-07,
        0.9999999999999356,
        -3.2584138276448016e-07,
        0.0,
        0.0,
        117.44561767578125,
        0.03200869262218475,
        1.0
      ],
      "name": "Tuli_Cluster_Pendant_Light_GreyTones"
    },
    {
      "mesh": 1,
      "name": "Tuli_Cluster_Pendant_Light_GreyTones_LAMP_SHADE_0"
    },
    {
      "mesh": 2,
      "name": "Tuli_Cluster_Pendant_Light_GreyTones_BLACK_0"
    },
    {
      "mesh": 3,
      "name": "Tuli_Cluster_Pendant_Light_GreyTones_LIGHT_BULB_0"
    }
  ],
  "samplers": [
    {
      "magFilter": 9729,
      "minFilter": 9987,
      "wrapS": 10497,
      "wrapT": 10497
    }
  ],
  "scene": 0,
  "scenes": [
    {
      "name": "Sketchfab_Scene",
      "nodes": [
        0
      ]
    }
  ],
  "textures": [
    {
      "sampler": 0,
      "source": 0
    },
    {
      "sampler": 0,
      "source": 1
    },
    {
      "sampler": 0,
      "source": 2
    }
  ]
}
