{
  "accessors": [
    {
      "bufferView": 2,
      "componentType": 5126,
      "count": 2373,
      "max": [
        1.178823471069336,
        0.8449252843856812,
        1.3762620687484741
      ],
      "min": [
        -0.8676412105560303,
        -0.9084162712097168,
        -1.0052872896194458
      ],
      "type": "VEC3"
    },
    {
      "bufferView": 2,
      "byteOffset": 28476,
      "componentType": 5126,
      "count": 2373,
      "max": [
        0.995728611946106,
        0.9996597766876221,
        0.9984568953514099
      ],
      "min": [
        -0.9993323087692261,
        -0.9990586042404175,
        -0.9999897480010986
      ],
      "type": "VEC3"
    },
    {
      "bufferView": 3,
      "componentType": 5126,
      "count": 2373,
      "max": [
        0.9909861087799072,
        0.9971674680709839,
        0.9827938675880432,
        1.0
      ],
      "min": [
        -0.9999613761901855,
        -0.9928705096244812,
        -0.9998010993003845,
        -1.0
      ],
      "type": "VEC4"
    },
    {
      "bufferView": 1,
      "componentType": 5126,
      "count": 2373,
      "max": [
        0.9961807727813721,
        0.9974401593208313
      ],
      "min": [
        0.0025139348581433296,
        0.0024830151814967394
      ],
      "type": "VEC2"
    },
    {
      "bufferView": 0,
      "componentType": 5125,
      "count": 10506,
      "type": "SCALAR"
    }
  ],
  "asset": {
    "extras": {
      "author": "Zhelazniakov Aleksandr (https://sketchfab.com/mrblik112)",
      "license": "CC-BY-4.0 (http://creativecommons.org/licenses/by/4.0/)",
      "source": "https://sketchfab.com/3d-models/bin-bag-low-poly-6f1f7bc45af74ec08f5e0d07ad9a0eb6",
      "title": "Bin bag Low Poly"
    },
    "generator": "Sketchfab-12.67.0",
    "version": "2.0"
  },
  "bufferViews": [
    {
      "buffer": 0,
      "byteLength": 42024,
      "name": "floatBufferViews",
      "target": 34963
    },
    {
      "buffer": 0,
      "byteLength": 18984,
      "byteOffset": 42024,
      "byteStride": 8,
      "name": "floatBufferViews",
      "target": 34962
    },
    {
      "buffer": 0,
      "byteLength": 56952,
      "byteOffset": 61008,
      "byteStride": 12,
      "name": "floatBufferViews",
      "target": 34962
    },
    {
      "buffer": 0,
      "byteLength": 37968,
      "byteOffset": 117960,
      "byteStride": 16,
      "name": "floatBufferViews",
      "target": 34962
    }
  ],
  "buffers": [
    {
      "byteLength": 155928,
      "uri": "scene.bin"
    }
  ],
  "images": [
    {
      "uri": "textures/TD_Checker_normal.png"
    }
  ],
  "materials": [
    {
      "doubleSided": true,
      "name": "TD_Checker",
      "normalTexture": {
        "index": 0
      },
      "pbrMetallicRoughness": {
        "baseColorFactor": [
          0.001712375681525524,
          0.001704798797978951,
          0.001704798797978951,
          1.0
        ],
        "metallicFactor": 0.0,
        "roughnessFactor": 0.06251178033550396
      }
    }
  ],
  "meshes": [
    {
      "name": "Cylinder.001_TD_Checker_0",
      "primitives": [
        {
          "attributes": {
            "NORMAL": 1,
            "POSITION": 0,
            "TANGENT": 2,
            "TEXCOORD_0": 3
          },
          "indices": 4,
          "material": 0,
          "mode": 4
        }
      ]
    }
  ],
  "nodes": [
    {
      "children": [
        1
      ],
      "matrix": [
        1.0,
        0.0,
        0.0,
        0.0,
        0.0,
        2.220446049250313e-16,
        -1.0,
        0.0,
        0.0,
        1.0,
        2.220446049250313e-16,
        0.0,
        0.0,
        0.0,
        0.0,
        1.0
      ],
      "name": "Sketchfab_model"
    },
    {
      "children": [
        2
      ],
      "matrix": [
        1.0,
        0.0,
        0.0,
        0.0,
        0.0,
        0.0,
        1.0,
        0.0,
        0.0,
        -1.0,
        0.0,
        0.0,
        0.0,
        0.0,
        0.0,
        1.0
      ],
      "name": "1df7d417157c4ebf85535836652b79ac.fbx"
    },
    {
      "children": [
        3
      ],
      "name": "RootNode"
    },
    {
      "children": [
        4
      ],
      "matrix": [
        100.0,
        0.0,
        0.0,
        0.0,
        0.0,
        -1.629206793918314e-05,
        -99.99999999999868,
        0.0,
        0.0,
        99.99999999999868,
        -1.629206793918314e-05,
        0.0,
        0.0,
        94.24675750732422,
        0.0,
        1.0
      ],
      "name": "Cylinder.001"
    },
    {
      "mesh": 0,
      "name": "Cylinder.001_TD_Checker_0"
    }
  ],
  "samplers": [
    {
      "magFilter": 9729,
      "minFilter": 9987,
      "wrapS": 10497,
      "wrapT": 10497
    }
  ],
  "scene": 0,
  "scenes": [
    {
      "name": "Sketchfab_Scene",
      "nodes": [
        0
      ]
    }
  ],
  "textures": [
    {
      "sampler": 0,
      "source": 0
    }
  ]
}
