{
  "accessors": [
    {
      "bufferView": 2,
      "componentType": 5126,
      "count": 25,
      "max": [
        250.0,
        250.0,
        0.0
      ],
      "min": [
        -250.0,
        -250.0,
        0.0
      ],
      "type": "VEC3"
    },
    {
      "bufferView": 2,
      "byteOffset": 300,
      "componentType": 5126,
      "count": 25,
      "max": [
        0.0,
        0.0,
        1.0
      ],
      "min": [
        0.0,
        0.0,
        1.0
      ],
      "type": "VEC3"
    },
    {
      "bufferView": 1,
      "componentType": 5126,
      "count": 25,
      "max": [
        1.0,
        1.0
      ],
      "min": [
        0.0,
        0.0
      ],
      "type": "VEC2"
    },
    {
      "bufferView": 0,
      "componentType": 5125,
      "count": 96,
      "type": "SCALAR"
    },
    {
      "bufferView": 2,
      "byteOffset": 600,
      "componentType": 5126,
      "count": 3163,
      "max": [
        60.00000762939453,
        59.99150085449219,
        84.25154113769531
      ],
      "min": [
        -59.9999885559082,
        -59.991485595703125,
        -0.05133056640625
      ],
      "type": "VEC3"
    },
    {
      "bufferView": 2,
      "byteOffset": 38556,
      "componentType": 5126,
      "count": 3163,
      "max": [
        1.0,
        0.9999854564666748,
        1.0
      ],
      "min": [
        -1.0,
        -0.9999892115592957,
        -1.0
      ],
      "type": "VEC3"
    },
    {
      "bufferView": 1,
      "byteOffset": 200,
      "componentType": 5126,
      "count": 3163,
      "max": [
        0.999500036239624,
        0.9950922727584839
      ],
      "min": [
        0.0005000000237487257,
        0.0005000000237487257
      ],
      "type": "VEC2"
    },
    {
      "bufferView": 1,
      "byteOffset": 25504,
      "componentType": 5126,
      "count": 3163,
      "max": [
        1.0069185495376587,
        1.0453391075134277
      ],
      "min": [
        -0.12500137090682983,
        0.0
      ],
      "type": "VEC2"
    },
    {
      "bufferView": 0,
      "byteOffset": 384,
      "componentType": 5125,
      "count": 11736,
      "type": "SCALAR"
    },
    {
      "bufferView": 2,
      "byteOffset": 76512,
      "componentType": 5126,
      "count": 464,
      "max": [
        40.342830657958984,
        42.416534423828125,
        80.97557830810547
      ],
      "min": [
        -40.50718307495117,
        -42.41651916503906,
        75.56686401367188
      ],
      "type": "VEC3"
    },
    {
      "bufferView": 2,
      "byteOffset": 82080,
      "componentType": 5126,
      "count": 464,
      "max": [
        0.009727341122925282,
        0.9998863935470581,
        0.9992651343345642
      ],
      "min": [
        -0.010677468962967396,
        -0.9998862147331238,
        -0.998568594455719
      ],
      "type": "VEC3"
    },
    {
      "bufferView": 1,
      "byteOffset": 50808,
      "componentType": 5126,
      "count": 464,
      "max": [
        0.9844179153442383,
        0.9014875888824463
      ],
      "min": [
        0.0005000000237487257,
        0.005600333213806152
      ],
      "type": "VEC2"
    },
    {
      "bufferView": 1,
      "byteOffset": 54520,
      "componentType": 5126,
      "count": 464,
      "max": [
        2.1929678916931152,
        2.013566493988037
      ],
      "min": [
        -82.64007568359375,
        -3.395150661468506
      ],
      "type": "VEC2"
    },
    {
      "bufferView": 0,
      "byteOffset": 47328,
      "componentType": 5125,
      "count": 2712,
      "type": "SCALAR"
    }
  ],
  "asset": {
    "extras": {
      "author": "MADE.COM (https://sketchfab.com/made-it)",
      "license": "CC-BY-NC-4.0 (http://creativecommons.org/licenses/by-nc/4.0/)",
      "source": "https://sketchfab.com/3d-models/belgrave-extending-dining-table-dark-oak-31035435a88940f3bf2884a06732b66b",
      "title": "Belgrave Extending Dining Table, Dark Oak"
    },
    "generator": "Sketchfab-12.68.0",
    "version": "2.0"
  },
  "bufferViews": [
    {
      "buffer": 0,
      "byteLength": 58176,
      "name": "floatBufferViews",
      "target": 34963
    },
    {
      "buffer": 0,
      "byteLength": 58232,
      "byteOffset": 58176,
      "byteStride": 8,
      "name": "floatBufferViews",
      "target": 34962
    },
    {
      "buffer": 0,
      "byteLength": 87648,
      "byteOffset": 116408,
      "byteStride": 12,
      "name": "floatBufferViews",
      "target": 34962
    }
  ],
  "buffers": [
    {
      "byteLength": 204056,
      "uri": "scene.bin"
    }
  ],
  "images": [
    {
      "uri": "textures/FLOOR_baseColor.png"
    },
    {
      "uri": "textures/WOOD_baseColor.jpeg"
    },
    {
      "uri": "textures/WOOD_metallicRoughness.png"
    },
    {
      "uri": "textures/STEEL_metallicRoughness.png"
    }
  ],
  "materials": [
    {
      "alphaMode": "BLEND",
      "doubleSided": true,
      "name": "FLOOR",
      "pbrMetallicRoughness": {
        "baseColorFactor": [
          0.0,
          0.0,
          0.0,
          0.5626905488
        ],
        "baseColorTexture": {
          "index": 0
        },
        "metallicFactor": 0.0
      }
    },
    {
      "doubleSided": true,
      "name": "WOOD",
      "occlusionTexture": {
        "index": 2
      },
      "pbrMetallicRoughness": {
        "baseColorTexture": {
          "index": 1
        },
        "metallicFactor": 0.0,
        "metallicRoughnessTexture": {
          "index": 2,
          "texCoord": 1
        },
        "roughnessFactor": 0.5261051829
      }
    },
    {
      "doubleSided": true,
      "name": "STEEL",
      "occlusionTexture": {
        "index": 3,
        "strength": 0.9529344512
      },
      "pbrMetallicRoughness": {
        "baseColorFactor": [
          0.1590052875,
          0.1662512849,
          0.1717234472,
          1.0
        ],
        "metallicFactor": 0.9041539634,
        "metallicRoughnessTexture": {
          "index": 3
        },
        "roughnessFactor": 0.2578125
      }
    }
  ],
  "meshes": [
    {
      "name": "Plane001_FLOOR_0",
      "primitives": [
        {
          "attributes": {
            "NORMAL": 1,
            "POSITION": 0,
            "TEXCOORD_0": 2
          },
          "indices": 3,
          "material": 0,
          "mode": 4
        }
      ]
    },
    {
      "name": "Belgrave_Extending_Table_WOOD_0",
      "primitives": [
        {
          "attributes": {
            "NORMAL": 5,
            "POSITION": 4,
            "TEXCOORD_0": 6,
            "TEXCOORD_1": 7
          },
          "indices": 8,
          "material": 1,
          "mode": 4
        }
      ]
    },
    {
      "name": "Belgrave_Extending_Table_STEEL_0",
      "primitives": [
        {
          "attributes": {
            "NORMAL": 10,
            "POSITION": 9,
            "TEXCOORD_0": 11,
            "TEXCOORD_1": 12
          },
          "indices": 13,
          "material": 2,
          "mode": 4
        }
      ]
    }
  ],
  "nodes": [
    {
      "children": [
        1
      ],
      "matrix": [
        0.8720952868461609,
        -1.0865443509335606e-16,
        0.4893360733985901,
        0.0,
        0.4893360733985901,
        1.9364405342473765e-16,
        -0.8720952868461609,
        0.0,
        0.0,
        1.0,
        2.220446049250313e-16,
        0.0,
        -3.3161999454023317e-05,
        1.2575029893197706e-20,
        -5.663289994117804e-05,
        1.0
      ],
      "name": "Sketchfab_model"
    },
    {
      "children": [
        2
      ],
      "matrix": [
        1.0,
        0.0,
        0.0,
        0.0,
        0.0,
        0.0,
        1.0,
        0.0,
        0.0,
        -1.0,
        0.0,
        0.0,
        0.0,
        0.0,
        0.0,
        1.0
      ],
      "name": "d563b9cbdcaa46d4a03557ed373293e4.fbx"
    },
    {
      "children": [
        3,
        5
      ],
      "name": "RootNode"
    },
    {
      "children": [
        4
      ],
      "matrix": [
        0.6681156158447266,
        0.0,
        0.0,
        0.0,
        0.0,
        1.483514679644863e-16,
        -0.6681156158447266,
        0.0,
        0.0,
        1.0,
        2.220446049250313e-16,
        0.0,
        0.0,
        0.0,
        0.0,
        1.0
      ],
      "name": "Plane001"
    },
    {
      "mesh": 0,
      "name": "Plane001_FLOOR_0"
    },
    {
      "children": [
        6,
        7
      ],
      "matrix": [
        0.9999999999999847,
        -3.970466940254533e-23,
        1.7484555314694902e-07,
        0.0,
        1.7484555314694902e-07,
        3.3306690738754696e-16,
        -0.9999999999999847,
        0.0,
        -3.970466940254533e-23,
        1.0,
        3.3306690738754696e-16,
        0.0,
        0.0,
        0.0,
        2.104792838508729e-05,
        1.0
      ],
      "name": "Belgrave_Extending_Table"
    },
    {
      "mesh": 1,
      "name": "Belgrave_Extending_Table_WOOD_0"
    },
    {
      "mesh": 2,
      "name": "Belgrave_Extending_Table_STEEL_0"
    }
  ],
  "samplers": [
    {
      "magFilter": 9729,
      "minFilter": 9987,
      "wrapS": 10497,
      "wrapT": 10497
    }
  ],
  "scene": 0,
  "scenes": [
    {
      "name": "Sketchfab_Scene",
      "nodes": [
        0
      ]
    }
  ],
  "textures": [
    {
      "sampler": 0,
      "source": 0
    },
    {
      "sampler": 0,
      "source": 1
    },
    {
      "sampler": 0,
      "source": 2
    },
    {
      "sampler": 0,
      "source": 3
    }
  ]
}
