{
  "accessors": [
    {
      "bufferView": 2,
      "componentType": 5126,
      "count": 1714,
      "max": [
        0.1473923921585083,
        0.1458652913570404,
        1.1726436614990234
      ],
      "min": [
        -0.14733590185642242,
        -0.14887076616287231,
        0.4579848647117615
      ],
      "type": "VEC3"
    },
    {
      "bufferView": 2,
      "byteOffset": 20568,
      "componentType": 5126,
      "count": 1714,
      "max": [
        0.9999542832374573,
        0.9999231100082397,
        1.0
      ],
      "min": [
        -0.9999549388885498,
        -0.9998952150344849,
        -1.0
      ],
      "type": "VEC3"
    },
    {
      "bufferView": 3,
      "componentType": 5126,
      "count": 1714,
      "max": [
        0.9999637603759766,
        0.9999998807907104,
        0.9902491569519043,
        1.0
      ],
      "min": [
        -0.9999333620071411,
        -0.9999292492866516,
        -1.0,
        -1.0
      ],
      "type": "VEC4"
    },
    {
      "bufferView": 1,
      "componentType": 5126,
      "count": 1714,
      "max": [
        0.9940474033355713,
        0.9924674034118652
      ],
      "min": [
        0.09141068160533905,
        0.0061973948031663895
      ],
      "type": "VEC2"
    },
    {
      "bufferView": 1,
      "byteOffset": 13712,
      "componentType": 5126,
      "count": 1714,
      "max": [
        0.9940474033355713,
        0.9924674034118652
      ],
      "min": [
        0.09141068160533905,
        0.0061973948031663895
      ],
      "type": "VEC2"
    },
    {
      "bufferView": 1,
      "byteOffset": 27424,
      "componentType": 5126,
      "count": 1714,
      "max": [
        0.9940474033355713,
        0.9924674034118652
      ],
      "min": [
        0.09141068160533905,
        0.0061973948031663895
      ],
      "type": "VEC2"
    },
    {
      "bufferView": 0,
      "componentType": 5125,
      "count": 7062,
      "type": "SCALAR"
    },
    {
      "bufferView": 2,
      "byteOffset": 41136,
      "componentType": 5126,
      "count": 182,
      "max": [
        0.03558715060353279,
        0.034056030213832855,
        0.462555468082428
      ],
      "min": [
        -0.0355304516851902,
        -0.03706158325076103,
        0.37690940499305725
      ],
      "type": "VEC3"
    },
    {
      "bufferView": 2,
      "byteOffset": 43320,
      "componentType": 5126,
      "count": 182,
      "max": [
        0.9986686110496521,
        0.9986686706542969,
        0.583342432975769
      ],
      "min": [
        -0.9986686110496521,
        -0.9986686706542969,
        -1.0
      ],
      "type": "VEC3"
    },
    {
      "bufferView": 3,
      "byteOffset": 27424,
      "componentType": 5126,
      "count": 182,
      "max": [
        0.9993137121200562,
        0.619235634803772,
        0.9999970197677612,
        -1.0
      ],
      "min": [
        -0.9998952746391296,
        -0.5845896601676941,
        -3.332912115183717e-07,
        -1.0
      ],
      "type": "VEC4"
    },
    {
      "bufferView": 1,
      "byteOffset": 41136,
      "componentType": 5126,
      "count": 182,
      "max": [
        0.9023946523666382,
        0.5223151445388794
      ],
      "min": [
        0.5541518330574036,
        0.443635493516922
      ],
      "type": "VEC2"
    },
    {
      "bufferView": 1,
      "byteOffset": 42592,
      "componentType": 5126,
      "count": 182,
      "max": [
        0.9023946523666382,
        0.5223151445388794
      ],
      "min": [
        0.5541518330574036,
        0.443635493516922
      ],
      "type": "VEC2"
    },
    {
      "bufferView": 1,
      "byteOffset": 44048,
      "componentType": 5126,
      "count": 182,
      "max": [
        0.9023946523666382,
        0.5223151445388794
      ],
      "min": [
        0.5541518330574036,
        0.443635493516922
      ],
      "type": "VEC2"
    },
    {
      "bufferView": 0,
      "byteOffset": 28248,
      "componentType": 5125,
      "count": 912,
      "type": "SCALAR"
    },
    {
      "bufferView": 2,
      "byteOffset": 45504,
      "componentType": 5126,
      "count": 1642,
      "max": [
        0.21585291624069214,
        0.2143276482820511,
        0.5282803177833557
      ],
      "min": [
        -0.21579641103744507,
        -0.2173331081867218,
        0.22109216451644897
      ],
      "type": "VEC3"
    },
    {
      "bufferView": 2,
      "byteOffset": 65208,
      "componentType": 5126,
      "count": 1642,
      "max": [
        0.9994038343429565,
        0.9994301795959473,
        1.0
      ],
      "min": [
        -0.9994037747383118,
        -0.999430239200592,
        -1.0
      ],
      "type": "VEC3"
    },
    {
      "bufferView": 3,
      "byteOffset": 30336,
      "componentType": 5126,
      "count": 1642,
      "max": [
        0.99836266040802,
        0.9999309778213501,
        0.9829927682876587,
        1.0
      ],
      "min": [
        -0.9984432458877563,
        -0.9997485280036926,
        -1.0,
        1.0
      ],
      "type": "VEC4"
    },
    {
      "bufferView": 1,
      "byteOffset": 45504,
      "componentType": 5126,
      "count": 1642,
      "max": [
        0.8855394721031189,
        0.9896869659423828
      ],
      "min": [
        0.016558947041630745,
        0.009889783337712288
      ],
      "type": "VEC2"
    },
    {
      "bufferView": 1,
      "byteOffset": 58640,
      "componentType": 5126,
      "count": 1642,
      "max": [
        0.8855394721031189,
        0.9896869659423828
      ],
      "min": [
        0.016558947041630745,
        0.009889783337712288
      ],
      "type": "VEC2"
    },
    {
      "bufferView": 1,
      "byteOffset": 71776,
      "componentType": 5126,
      "count": 1642,
      "max": [
        0.8855394721031189,
        0.9896869659423828
      ],
      "min": [
        0.016558947041630745,
        0.009889783337712288
      ],
      "type": "VEC2"
    },
    {
      "bufferView": 0,
      "byteOffset": 31896,
      "componentType": 5125,
      "count": 8832,
      "type": "SCALAR"
    }
  ],
  "asset": {
    "extras": {
      "author": "mohamedhussien (https://sketchfab.com/mohamedhussien)",
      "license": "CC-BY-4.0 (http://creativecommons.org/licenses/by/4.0/)",
      "source": "https://sketchfab.com/3d-models/modern-ceiling-lamp-01-4k-ab22729ecda54178ba4f0b4212b170a9",
      "title": "Modern Ceiling Lamp 01 4k"
    },
    "generator": "Sketchfab-12.56.0",
    "version": "2.0"
  },
  "bufferViews": [
    {
      "buffer": 0,
      "byteLength": 67224,
      "name": "floatBufferViews",
      "target": 34963
    },
    {
      "buffer": 0,
      "byteLength": 84912,
      "byteOffset": 67224,
      "byteStride": 8,
      "name": "floatBufferViews",
      "target": 34962
    },
    {
      "buffer": 0,
      "byteLength": 84912,
      "byteOffset": 152136,
      "byteStride": 12,
      "name": "floatBufferViews",
      "target": 34962
    },
    {
      "buffer": 0,
      "byteLength": 56608,
      "byteOffset": 237048,
      "byteStride": 16,
      "name": "floatBufferViews",
      "target": 34962
    }
  ],
  "buffers": [
    {
      "byteLength": 293656,
      "uri": "scene.bin"
    }
  ],
  "images": [
    {
      "uri": "textures/modern_ceiling_lamp_01_baseColor.jpeg"
    },
    {
      "uri": "textures/modern_ceiling_lamp_01_metallicRoughness.png"
    },
    {
      "uri": "textures/modern_ceiling_lamp_01_normal.png"
    },
    {
      "uri": "textures/modern_ceiling_globe_metallicRoughness.png"
    }
  ],
  "materials": [
    {
      "doubleSided": true,
      "name": "modern_ceiling_lamp_01",
      "normalTexture": {
        "index": 2
      },
      "occlusionTexture": {
        "index": 1
      },
      "pbrMetallicRoughness": {
        "baseColorTexture": {
          "index": 0
        },
        "metallicRoughnessTexture": {
          "index": 1
        }
      }
    },
    {
      "doubleSided": true,
      "emissiveFactor": [
        0.622958,
        0.541622,
        0.47455
      ],
      "name": "modern_ceiling_globe",
      "normalTexture": {
        "index": 2
      },
      "occlusionTexture": {
        "index": 3
      },
      "pbrMetallicRoughness": {
        "baseColorTexture": {
          "index": 0
        },
        "metallicRoughnessTexture": {
          "index": 3
        }
      }
    },
    {
      "doubleSided": true,
      "name": "modern_ceiling_lamp_01_glass",
      "normalTexture": {
        "index": 2
      },
      "occlusionTexture": {
        "index": 1
      },
      "pbrMetallicRoughness": {
        "baseColorTexture": {
          "index": 0
        },
        "metallicRoughnessTexture": {
          "index": 1
        }
      }
    }
  ],
  "meshes": [
    {
      "name": "modern_ceiling_lamp_01_modern_ceiling_lamp_01_0",
      "primitives": [
        {
          "attributes": {
            "NORMAL": 1,
            "POSITION": 0,
            "TANGENT": 2,
            "TEXCOORD_0": 3,
            "TEXCOORD_1": 4,
            "TEXCOORD_2": 5
          },
          "indices": 6,
          "material": 0,
          "mode": 4
        }
      ]
    },
    {
      "name": "modern_ceiling_lamp_01_modern_ceiling_globe_0",
      "primitives": [
        {
          "attributes": {
            "NORMAL": 8,
            "POSITION": 7,
            "TANGENT": 9,
            "TEXCOORD_0": 10,
            "TEXCOORD_1": 11,
            "TEXCOORD_2": 12
          },
          "indices": 13,
          "material": 1,
          "mode": 4
        }
      ]
    },
    {
      "name": "modern_ceiling_lamp_01_modern_ceiling_lamp_01_glass_0",
      "primitives": [
        {
          "attributes": {
            "NORMAL": 15,
            "POSITION": 14,
            "TANGENT": 16,
            "TEXCOORD_0": 17,
            "TEXCOORD_1": 18,
            "TEXCOORD_2": 19
          },
          "indices": 20,
          "material": 2,
          "mode": 4
        }
      ]
    }
  ],
  "nodes": [
    {
      "children": [
        1
      ],
      "matrix": [
        1.0,
        0.0,
        0.0,
        0.0,
        0.0,
        2.220446049250313e-16,
        -1.0,
        0.0,
        0.0,
        1.0,
        2.220446049250313e-16,
        0.0,
        0.0,
        0.0,
        0.0,
        1.0
      ],
      "name": "Sketchfab_model"
    },
    {
      "children": [
        2
      ],
      "matrix": [
        0.009999999776482582,
        0.0,
        0.0,
        0.0,
        0.0,
        0.0,
        0.009999999776482582,
        0.0,
        0.0,
        -0.009999999776482582,
        0.0,
        0.0,
        0.0,
        0.0,
        0.0,
        1.0
      ],
      "name": "modern_ceiling_lamp_01_4k.fbx"
    },
    {
      "children": [
        3
      ],
      "name": "RootNode"
    },
    {
      "children": [
        4,
        5,
        6
      ],
      "matrix": [
        100.0,
        0.0,
        0.0,
        0.0,
        0.0,
        -1.629206793918314e-05,
        -99.99999999999868,
        0.0,
        0.0,
        99.99999999999868,
        -1.629206793918314e-05,
        0.0,
        0.0,
        0.0,
        0.0,
        1.0
      ],
      "name": "modern_ceiling_lamp_01"
    },
    {
      "mesh": 0,
      "name": "modern_ceiling_lamp_01_modern_ceiling_lamp_01_0"
    },
    {
      "mesh": 1,
      "name": "modern_ceiling_lamp_01_modern_ceiling_globe_0"
    },
    {
      "mesh": 2,
      "name": "modern_ceiling_lamp_01_modern_ceiling_lamp_01_glass_0"
    }
  ],
  "samplers": [
    {
      "magFilter": 9729,
      "minFilter": 9987,
      "wrapS": 10497,
      "wrapT": 10497
    }
  ],
  "scene": 0,
  "scenes": [
    {
      "name": "Sketchfab_Scene",
      "nodes": [
        0
      ]
    }
  ],
  "textures": [
    {
      "sampler": 0,
      "source": 0
    },
    {
      "sampler": 0,
      "source": 1
    },
    {
      "sampler": 0,
      "source": 2
    },
    {
      "sampler": 0,
      "source": 3
    }
  ]
}
