{
  "accessors": [
    {
      "bufferView": 2,
      "componentType": 5126,
      "count": 5733,
      "max": [
        0.2875880002975464,
        0.18089500069618225,
        0.3748829960823059
      ],
      "min": [
        -0.33201301097869873,
        -0.18123400211334229,
        -0.6394690275192261
      ],
      "type": "VEC3"
    },
    {
      "bufferView": 2,
      "byteOffset": 68796,
      "componentType": 5126,
      "count": 5733,
      "max": [
        1.0,
        1.0,
        1.0
      ],
      "min": [
        -1.0,
        -1.0,
        -1.0
      ],
      "type": "VEC3"
    },
    {
      "bufferView": 3,
      "componentType": 5126,
      "count": 5733,
      "max": [
        1.0,
        1.0,
        1.0,
        1.0
      ],
      "min": [
        -1.0,
        -1.0,
        -1.0,
        -1.0
      ],
      "type": "VEC4"
    },
    {
      "bufferView": 1,
      "componentType": 5126,
      "count": 5733,
      "max": [
        0.9875530004501343,
        0.9902229905128479
      ],
      "min": [
        0.009777000173926353,
        0.009777000173926353
      ],
      "type": "VEC2"
    },
    {
      "bufferView": 0,
      "componentType": 5125,
      "count": 22620,
      "type": "SCALAR"
    },
    {
      "bufferView": 2,
      "byteOffset": 137592,
      "componentType": 5126,
      "count": 25,
      "max": [
        0.4016050100326538,
        -0.18077899515628815,
        0.39490100741386414
      ],
      "min": [
        -0.44602999091148376,
        -0.18077899515628815,
        -0.6594870090484619
      ],
      "type": "VEC3"
    },
    {
      "bufferView": 2,
      "byteOffset": 137892,
      "componentType": 5126,
      "count": 25,
      "max": [
        0.0,
        1.0,
        6.123230292458899e-17
      ],
      "min": [
        0.0,
        1.0,
        6.123230292458899e-17
      ],
      "type": "VEC3"
    },
    {
      "bufferView": 3,
      "byteOffset": 91728,
      "componentType": 5126,
      "count": 25,
      "max": [
        1.0,
        3.1126252606906094e-22,
        5.08331140736118e-06,
        1.0
      ],
      "min": [
        1.0,
        -3.112628542351975e-22,
        -5.083305495645618e-06,
        1.0
      ],
      "type": "VEC4"
    },
    {
      "bufferView": 1,
      "byteOffset": 45864,
      "componentType": 5126,
      "count": 25,
      "max": [
        0.9979990124702454,
        0.9980000257492065
      ],
      "min": [
        0.0020000000949949026,
        0.0020000000949949026
      ],
      "type": "VEC2"
    },
    {
      "bufferView": 0,
      "byteOffset": 90480,
      "componentType": 5125,
      "count": 96,
      "type": "SCALAR"
    }
  ],
  "asset": {
    "extras": {
      "author": "Doaa Sheha (https://sketchfab.com/doo7)",
      "license": "CC-BY-4.0 (http://creativecommons.org/licenses/by/4.0/)",
      "source": "https://sketchfab.com/3d-models/bed-07-95e58eda71e8438fbf0be4169fefef86",
      "title": "Bed 07"
    },
    "generator": "Sketchfab-12.66.0",
    "version": "2.0"
  },
  "bufferViews": [
    {
      "buffer": 0,
      "byteLength": 90864,
      "name": "floatBufferViews",
      "target": 34963
    },
    {
      "buffer": 0,
      "byteLength": 46064,
      "byteOffset": 90864,
      "byteStride": 8,
      "name": "floatBufferViews",
      "target": 34962
    },
    {
      "buffer": 0,
      "byteLength": 138192,
      "byteOffset": 136928,
      "byteStride": 12,
      "name": "floatBufferViews",
      "target": 34962
    },
    {
      "buffer": 0,
      "byteLength": 92128,
      "byteOffset": 275120,
      "byteStride": 16,
      "name": "floatBufferViews",
      "target": 34962
    }
  ],
  "buffers": [
    {
      "byteLength": 367248,
      "uri": "scene.bin"
    }
  ],
  "images": [
    {
      "uri": "textures/Plane_baseColor.png"
    },
    {
      "uri": "textures/Plane_metallicRoughness.png"
    },
    {
      "uri": "textures/Plane_normal.png"
    },
    {
      "uri": "textures/BED_07_baseColor.jpeg"
    },
    {
      "uri": "textures/BED_07_metallicRoughness.png"
    },
    {
      "uri": "textures/BED_07_emissive.jpeg"
    },
    {
      "uri": "textures/BED_07_normal.png"
    }
  ],
  "materials": [
    {
      "alphaMode": "BLEND",
      "doubleSided": true,
      "name": "Plane",
      "normalTexture": {
        "index": 2
      },
      "pbrMetallicRoughness": {
        "baseColorTexture": {
          "index": 0
        },
        "metallicRoughnessTexture": {
          "index": 1
        }
      }
    },
    {
      "doubleSided": true,
      "emissiveFactor": [
        1.0,
        1.0,
        1.0
      ],
      "emissiveTexture": {
        "index": 5
      },
      "name": "BED_07",
      "normalTexture": {
        "index": 6
      },
      "occlusionTexture": {
        "index": 4
      },
      "pbrMetallicRoughness": {
        "baseColorTexture": {
          "index": 3
        },
        "metallicRoughnessTexture": {
          "index": 4
        }
      }
    }
  ],
  "meshes": [
    {
      "name": "defaultMaterial",
      "primitives": [
        {
          "attributes": {
            "NORMAL": 1,
            "POSITION": 0,
            "TANGENT": 2,
            "TEXCOORD_0": 3
          },
          "indices": 4,
          "material": 1,
          "mode": 4
        }
      ]
    },
    {
      "name": "defaultMaterial",
      "primitives": [
        {
          "attributes": {
            "NORMAL": 6,
            "POSITION": 5,
            "TANGENT": 7,
            "TEXCOORD_0": 8
          },
          "indices": 9,
          "material": 0,
          "mode": 4
        }
      ]
    }
  ],
  "nodes": [
    {
      "children": [
        1
      ],
      "matrix": [
        1.0,
        0.0,
        0.0,
        0.0,
        0.0,
        2.220446049250313e-16,
        -1.0,
        0.0,
        0.0,
        1.0,
        2.220446049250313e-16,
        0.0,
        0.0,
        0.0,
        0.0,
        1.0
      ],
      "name": "Sketchfab_model"
    },
    {
      "children": [
        2,
        4
      ],
      "matrix": [
        1.0,
        0.0,
        0.0,
        0.0,
        0.0,
        -4.371139006309477e-08,
        0.999999999999999,
        0.0,
        0.0,
        -0.999999999999999,
        -4.371139006309477e-08,
        0.0,
        0.0,
        0.0,
        0.0,
        1.0
      ],
      "name": "Collada visual scene group"
    },
    {
      "children": [
        3
      ],
      "name": "BED_07"
    },
    {
      "mesh": 0,
      "name": "defaultMaterial"
    },
    {
      "children": [
        5
      ],
      "name": "Plane001"
    },
    {
      "mesh": 1,
      "name": "defaultMaterial"
    }
  ],
  "samplers": [
    {
      "magFilter": 9729,
      "minFilter": 9987,
      "wrapS": 10497,
      "wrapT": 10497
    }
  ],
  "scene": 0,
  "scenes": [
    {
      "name": "Sketchfab_Scene",
      "nodes": [
        0
      ]
    }
  ],
  "textures": [
    {
      "sampler": 0,
      "source": 0
    },
    {
      "sampler": 0,
      "source": 1
    },
    {
      "sampler": 0,
      "source": 2
    },
    {
      "sampler": 0,
      "source": 3
    },
    {
      "sampler": 0,
      "source": 4
    },
    {
      "sampler": 0,
      "source": 5
    },
    {
      "sampler": 0,
      "source": 6
    }
  ]
}
