{
  "accessors": [
    {
      "bufferView": 2,
      "componentType": 5126,
      "count": 5888,
      "max": [
        33.71405029296875,
        8.81491470336914,
        3.6103200912475586
      ],
      "min": [
        -33.28804016113281,
        -9.66545295715332,
        -98.59961700439453
      ],
      "type": "VEC3"
    },
    {
      "bufferView": 2,
      "byteOffset": 70656,
      "componentType": 5126,
      "count": 5888,
      "max": [
        1.0,
        1.0,
        1.0
      ],
      "min": [
        -1.0,
        -1.0,
        -1.0
      ],
      "type": "VEC3"
    },
    {
      "bufferView": 1,
      "componentType": 5126,
      "count": 5888,
      "max": [
        0.9965875744819641,
        0.8902999758720398
      ],
      "min": [
        0.0005000000237487257,
        0.0005000000237487257
      ],
      "type": "VEC2"
    },
    {
      "bufferView": 1,
      "byteOffset": 47104,
      "componentType": 5126,
      "count": 5888,
      "max": [
        77.51342010498047,
        114.493896484375
      ],
      "min": [
        -33.28804016113281,
        -0.02237864024937153
      ],
      "type": "VEC2"
    },
    {
      "bufferView": 0,
      "componentType": 5125,
      "count": 17088,
      "type": "SCALAR"
    },
    {
      "bufferView": 2,
      "byteOffset": 141312,
      "componentType": 5126,
      "count": 1480,
      "max": [
        35.0000114440918,
        28.81414031982422,
        12.207810401916504
      ],
      "min": [
        -35.15940856933594,
        8.809020042419434,
        -107.79219818115234
      ],
      "type": "VEC3"
    },
    {
      "bufferView": 2,
      "byteOffset": 159072,
      "componentType": 5126,
      "count": 1480,
      "max": [
        0.999998927116394,
        1.0,
        0.9999986886978149
      ],
      "min": [
        -0.9999992251396179,
        -1.0,
        -0.9999986886978149
      ],
      "type": "VEC3"
    },
    {
      "bufferView": 1,
      "byteOffset": 94208,
      "componentType": 5126,
      "count": 1480,
      "max": [
        0.9994999766349792,
        0.9859645962715149
      ],
      "min": [
        0.0005000000237487257,
        0.0005000000237487257
      ],
      "type": "VEC2"
    },
    {
      "bufferView": 1,
      "byteOffset": 106048,
      "componentType": 5126,
      "count": 1480,
      "max": [
        1.005162000656128,
        0.8706430196762085
      ],
      "min": [
        -0.016558140516281128,
        -0.002051294082775712
      ],
      "type": "VEC2"
    },
    {
      "bufferView": 0,
      "byteOffset": 68352,
      "componentType": 5125,
      "count": 3756,
      "type": "SCALAR"
    },
    {
      "bufferView": 2,
      "byteOffset": 176832,
      "componentType": 5126,
      "count": 4,
      "max": [
        167.02890014648438,
        167.02890014648438,
        0.0
      ],
      "min": [
        -167.02890014648438,
        -167.02890014648438,
        0.0
      ],
      "type": "VEC3"
    },
    {
      "bufferView": 2,
      "byteOffset": 176880,
      "componentType": 5126,
      "count": 4,
      "max": [
        0.0,
        0.0,
        1.0
      ],
      "min": [
        0.0,
        0.0,
        1.0
      ],
      "type": "VEC3"
    },
    {
      "bufferView": 1,
      "byteOffset": 117888,
      "componentType": 5126,
      "count": 4,
      "max": [
        1.0,
        1.0
      ],
      "min": [
        2.98022992950564e-08,
        2.98022992950564e-08
      ],
      "type": "VEC2"
    },
    {
      "bufferView": 0,
      "byteOffset": 83376,
      "componentType": 5125,
      "count": 6,
      "type": "SCALAR"
    }
  ],
  "asset": {
    "extras": {
      "author": "MADE.COM (https://sketchfab.com/made-it)",
      "license": "CC-BY-NC-4.0 (http://creativecommons.org/licenses/by-nc/4.0/)",
      "source": "https://sketchfab.com/3d-models/flippa-functional-coffee-table-with-storage-oak-9ad4ef79f2d14649840b3ca254e77319",
      "title": "Flippa Functional Coffee Table With Storage, Oak"
    },
    "generator": "Sketchfab-12.68.0",
    "version": "2.0"
  },
  "bufferViews": [
    {
      "buffer": 0,
      "byteLength": 83400,
      "name": "floatBufferViews",
      "target": 34963
    },
    {
      "buffer": 0,
      "byteLength": 117920,
      "byteOffset": 83400,
      "byteStride": 8,
      "name": "floatBufferViews",
      "target": 34962
    },
    {
      "buffer": 0,
      "byteLength": 176928,
      "byteOffset": 201320,
      "byteStride": 12,
      "name": "floatBufferViews",
      "target": 34962
    }
  ],
  "buffers": [
    {
      "byteLength": 378248,
      "uri": "scene.bin"
    }
  ],
  "images": [
    {
      "uri": "textures/FLOOR_baseColor.png"
    },
    {
      "uri": "textures/STEEL_baseColor.jpeg"
    },
    {
      "uri": "textures/EnvironmentAmbientLight_metallicRoughness.png"
    }
  ],
  "materials": [
    {
      "alphaMode": "BLEND",
      "doubleSided": true,
      "name": "FLOOR",
      "pbrMetallicRoughness": {
        "baseColorFactor": [
          0.1602515244,
          0.1602515244,
          0.1602515244,
          1.0
        ],
        "baseColorTexture": {
          "index": 0
        },
        "metallicFactor": 0.0
      }
    },
    {
      "doubleSided": true,
      "name": "STEEL",
      "pbrMetallicRoughness": {
        "baseColorTexture": {
          "index": 1
        },
        "metallicFactor": 0.7943978659,
        "roughnessFactor": 0.2151295732
      }
    },
    {
      "doubleSided": true,
      "name": "EnvironmentAmbientLight",
      "occlusionTexture": {
        "index": 2
      },
      "pbrMetallicRoughness": {
        "baseColorTexture": {
          "index": 1
        },
        "metallicFactor": 0.0,
        "metallicRoughnessTexture": {
          "index": 2
        },
        "roughnessFactor": 0.2578125
      }
    }
  ],
  "meshes": [
    {
      "name": "STEEL",
      "primitives": [
        {
          "attributes": {
            "NORMAL": 1,
            "POSITION": 0,
            "TEXCOORD_0": 2,
            "TEXCOORD_1": 3
          },
          "indices": 4,
          "material": 1,
          "mode": 4
        }
      ]
    },
    {
      "name": "WOOD",
      "primitives": [
        {
          "attributes": {
            "NORMAL": 6,
            "POSITION": 5,
            "TEXCOORD_0": 7,
            "TEXCOORD_1": 8
          },
          "indices": 9,
          "material": 2,
          "mode": 4
        }
      ]
    },
    {
      "name": "FLOOR",
      "primitives": [
        {
          "attributes": {
            "NORMAL": 11,
            "POSITION": 10,
            "TEXCOORD_0": 12
          },
          "indices": 13,
          "material": 0,
          "mode": 4
        }
      ]
    }
  ],
  "nodes": [
    {
      "children": [
        1
      ],
      "matrix": [
        1.0,
        0.0,
        0.0,
        0.0,
        0.0,
        2.220446049250313e-16,
        -1.0,
        0.0,
        0.0,
        1.0,
        2.220446049250313e-16,
        0.0,
        0.0,
        0.0,
        0.0,
        1.0
      ],
      "name": "Sketchfab_model"
    },
    {
      "children": [
        2,
        6,
        8
      ],
      "name": "Collada visual scene group"
    },
    {
      "children": [
        3
      ],
      "matrix": [
        6.882551173426066e-08,
        0.9999999999999952,
        -6.882552111564522e-08,
        0.0,
        1.3765102890861414e-07,
        6.882551173426066e-08,
        0.9999999999999882,
        0.0,
        0.9999999999999882,
        -6.882552111564522e-08,
        -1.3765102413465513e-07,
        0.0,
        -7.629389983776491e-06,
        -0.0797029435634613,
        0.4467341899871826,
        1.0
      ],
      "name": "Flippa_Functional_Coffee_Table_with_Storage_Walnut_CLOSED"
    },
    {
      "children": [
        4,
        5
      ],
      "matrix": [
        1.0,
        0.0,
        0.0,
        0.0,
        0.0,
        1.0,
        0.0,
        0.0,
        0.0,
        0.0,
        1.0,
        0.0,
        0.07970047,
        9.337116,
        47.79219,
        1.0
      ],
      "name": "Object_3"
    },
    {
      "mesh": 0,
      "name": "STEEL"
    },
    {
      "mesh": 1,
      "name": "WOOD"
    },
    {
      "children": [
        7
      ],
      "name": "Plane001"
    },
    {
      "mesh": 2,
      "name": "FLOOR"
    },
    {
      "children": [
        9
      ],
      "name": "EnvironmentAmbientLight"
    },
    {
      "name": "EnvironmentAmbientLight"
    }
  ],
  "samplers": [
    {
      "magFilter": 9729,
      "minFilter": 9987,
      "wrapS": 10497,
      "wrapT": 10497
    }
  ],
  "scene": 0,
  "scenes": [
    {
      "name": "Sketchfab_Scene",
      "nodes": [
        0
      ]
    }
  ],
  "textures": [
    {
      "sampler": 0,
      "source": 0
    },
    {
      "sampler": 0,
      "source": 1
    },
    {
      "sampler": 0,
      "source": 2
    }
  ]
}
