{
  "accessors": [
    {
      "bufferView": 2,
      "componentType": 5126,
      "count": 844,
      "max": [
        0.6708022356033325,
        1.0325000286102295,
        0.9599999785423279
      ],
      "min": [
        -0.6708022356033325,
        -1.026996374130249,
        0.009999990463256836
      ],
      "type": "VEC3"
    },
    {
      "bufferView": 2,
      "byteOffset": 10128,
      "componentType": 5126,
      "count": 844,
      "max": [
        1.0,
        1.0,
        1.0
      ],
      "min": [
        -1.0,
        -1.0,
        -1.0
      ],
      "type": "VEC3"
    },
    {
      "bufferView": 3,
      "componentType": 5126,
      "count": 844,
      "max": [
        1.0,
        1.0,
        1.0,
        1.0
      ],
      "min": [
        -1.0,
        -1.0,
        -1.0,
        1.0
      ],
      "type": "VEC4"
    },
    {
      "bufferView": 1,
      "componentType": 5126,
      "count": 844,
      "max": [
        0.948951244354248,
        0.9997153282165527
      ],
      "min": [
        0.0002846818824764341,
        0.0002846818824764341
      ],
      "type": "VEC2"
    },
    {
      "bufferView": 0,
      "componentType": 5125,
      "count": 1440,
      "type": "SCALAR"
    },
    {
      "bufferView": 2,
      "byteOffset": 20256,
      "componentType": 5126,
      "count": 504,
      "max": [
        0.5901654362678528,
        0.9674946069717407,
        0.07264195382595062
      ],
      "min": [
        -0.5798329710960388,
        -0.96890789270401,
        -0.20509877800941467
      ],
      "type": "VEC3"
    },
    {
      "bufferView": 2,
      "byteOffset": 26304,
      "componentType": 5126,
      "count": 504,
      "max": [
        1.0,
        1.0,
        1.0
      ],
      "min": [
        -1.0,
        -1.0,
        -1.0
      ],
      "type": "VEC3"
    },
    {
      "bufferView": 3,
      "byteOffset": 13504,
      "componentType": 5126,
      "count": 504,
      "max": [
        0.9999985694885254,
        0.9441269636154175,
        1.0,
        1.0
      ],
      "min": [
        -1.0,
        -0.9999937415122986,
        -0.8090267181396484,
        -1.0
      ],
      "type": "VEC4"
    },
    {
      "bufferView": 1,
      "byteOffset": 6752,
      "componentType": 5126,
      "count": 504,
      "max": [
        0.875,
        1.0
      ],
      "min": [
        0.125,
        9.717642246442892e-10
      ],
      "type": "VEC2"
    },
    {
      "bufferView": 0,
      "byteOffset": 5760,
      "componentType": 5125,
      "count": 780,
      "type": "SCALAR"
    },
    {
      "bufferView": 2,
      "byteOffset": 32352,
      "componentType": 5126,
      "count": 9485,
      "max": [
        12.21391487121582,
        70.94593048095703,
        -56.08951950073242
      ],
      "min": [
        -49.225215911865234,
        57.258785247802734,
        -100.33844757080078
      ],
      "type": "VEC3"
    },
    {
      "bufferView": 2,
      "byteOffset": 146172,
      "componentType": 5126,
      "count": 9485,
      "max": [
        0.9937607645988464,
        0.9999259114265442,
        0.9962320923805237
      ],
      "min": [
        -0.9990841150283813,
        -1.0,
        -0.999978244304657
      ],
      "type": "VEC3"
    },
    {
      "bufferView": 3,
      "byteOffset": 21568,
      "componentType": 5126,
      "count": 9485,
      "max": [
        0.9999524354934692,
        0.9999731183052063,
        0.7575830817222595,
        1.0
      ],
      "min": [
        -0.9998406171798706,
        -0.9967032670974731,
        -0.9976540207862854,
        -1.0
      ],
      "type": "VEC4"
    },
    {
      "bufferView": 1,
      "byteOffset": 10784,
      "componentType": 5126,
      "count": 9485,
      "max": [
        0.7107178568840027,
        0.999880850315094
      ],
      "min": [
        0.00011918555537704378,
        0.00011918555537704378
      ],
      "type": "VEC2"
    },
    {
      "bufferView": 0,
      "byteOffset": 8880,
      "componentType": 5125,
      "count": 55458,
      "type": "SCALAR"
    },
    {
      "bufferView": 2,
      "byteOffset": 259992,
      "componentType": 5126,
      "count": 9495,
      "max": [
        49.74187088012695,
        74.42955780029297,
        -61.471046447753906
      ],
      "min": [
        -4.1934027671813965,
        58.1555061340332,
        -100.3422622680664
      ],
      "type": "VEC3"
    },
    {
      "bufferView": 2,
      "byteOffset": 373932,
      "componentType": 5126,
      "count": 9495,
      "max": [
        0.9989210367202759,
        0.9999854564666748,
        0.9995946288108826
      ],
      "min": [
        -0.9995792508125305,
        -1.0,
        -0.9999427199363708
      ],
      "type": "VEC3"
    },
    {
      "bufferView": 3,
      "byteOffset": 173328,
      "componentType": 5126,
      "count": 9495,
      "max": [
        0.9999118447303772,
        0.9999950528144836,
        0.9768949151039124,
        1.0
      ],
      "min": [
        -0.999973475933075,
        -0.999975323677063,
        -0.8737170696258545,
        -1.0
      ],
      "type": "VEC4"
    },
    {
      "bufferView": 1,
      "byteOffset": 86664,
      "componentType": 5126,
      "count": 9495,
      "max": [
        0.7107176780700684,
        0.9998807907104492
      ],
      "min": [
        0.00011918555537704378,
        0.00011918555537704378
      ],
      "type": "VEC2"
    },
    {
      "bufferView": 0,
      "byteOffset": 230712,
      "componentType": 5125,
      "count": 55518,
      "type": "SCALAR"
    },
    {
      "bufferView": 2,
      "byteOffset": 487872,
      "componentType": 5126,
      "count": 24357,
      "max": [
        65.82521057128906,
        63.3689079284668,
        112.83617401123047
      ],
      "min": [
        -64.27135467529297,
        26.21774673461914,
        -105.10902404785156
      ],
      "type": "VEC3"
    },
    {
      "bufferView": 2,
      "byteOffset": 780156,
      "componentType": 5126,
      "count": 24357,
      "max": [
        0.9999844431877136,
        1.0,
        0.9999403953552246
      ],
      "min": [
        -0.9496421813964844,
        -0.9956111311912537,
        -0.999991774559021
      ],
      "type": "VEC3"
    },
    {
      "bufferView": 3,
      "byteOffset": 325248,
      "componentType": 5126,
      "count": 24357,
      "max": [
        0.9924526214599609,
        0.9999905228614807,
        0.995356023311615,
        1.0
      ],
      "min": [
        -1.0,
        -0.9492855668067932,
        -0.8734765648841858,
        1.0
      ],
      "type": "VEC4"
    },
    {
      "bufferView": 1,
      "byteOffset": 162624,
      "componentType": 5126,
      "count": 24357,
      "max": [
        0.6143775582313538,
        0.9999216794967651
      ],
      "min": [
        7.837110024411231e-05,
        7.837110024411231e-05
      ],
      "type": "VEC2"
    },
    {
      "bufferView": 0,
      "byteOffset": 452784,
      "componentType": 5125,
      "count": 144225,
      "type": "SCALAR"
    },
    {
      "bufferView": 2,
      "byteOffset": 1072440,
      "componentType": 5126,
      "count": 65532,
      "max": [
        58.92466354370117,
        71.52031707763672,
        106.99442291259766
      ],
      "min": [
        -64.78006744384766,
        45.56513595581055,
        -76.12114715576172
      ],
      "type": "VEC3"
    },
    {
      "bufferView": 2,
      "byteOffset": 1858824,
      "componentType": 5126,
      "count": 65532,
      "max": [
        0.9998340606689453,
        1.0,
        0.9999948143959045
      ],
      "min": [
        -0.9999103546142578,
        -1.0,
        -0.999876856803894
      ],
      "type": "VEC3"
    },
    {
      "bufferView": 3,
      "byteOffset": 714960,
      "componentType": 5126,
      "count": 65532,
      "max": [
        0.999759316444397,
        0.9991951584815979,
        0.9999600648880005,
        1.0
      ],
      "min": [
        -1.0,
        -0.9996311068534851,
        -0.9999760985374451,
        -1.0
      ],
      "type": "VEC4"
    },
    {
      "bufferView": 1,
      "byteOffset": 357480,
      "componentType": 5126,
      "count": 65532,
      "max": [
        0.9998756647109985,
        0.7740245461463928
      ],
      "min": [
        0.00012437967234291136,
        0.00012437967234291136
      ],
      "type": "VEC2"
    },
    {
      "bufferView": 0,
      "byteOffset": 1029684,
      "componentType": 5125,
      "count": 381411,
      "type": "SCALAR"
    },
    {
      "bufferView": 2,
      "byteOffset": 2645208,
      "componentType": 5126,
      "count": 48428,
      "max": [
        58.833038330078125,
        70.917236328125,
        104.44264221191406
      ],
      "min": [
        -64.14176940917969,
        51.05864334106445,
        -71.15486907958984
      ],
      "type": "VEC3"
    },
    {
      "bufferView": 2,
      "byteOffset": 3226344,
      "componentType": 5126,
      "count": 48428,
      "max": [
        0.999946653842926,
        1.0,
        0.98726487159729
      ],
      "min": [
        -0.9999344348907471,
        -1.0,
        -0.9998043775558472
      ],
      "type": "VEC3"
    },
    {
      "bufferView": 3,
      "byteOffset": 1763472,
      "componentType": 5126,
      "count": 48428,
      "max": [
        0.9999508261680603,
        0.9988806843757629,
        0.9999600648880005,
        1.0
      ],
      "min": [
        -1.0,
        -0.9999731183052063,
        -0.9914207458496094,
        -1.0
      ],
      "type": "VEC4"
    },
    {
      "bufferView": 1,
      "byteOffset": 881736,
      "componentType": 5126,
      "count": 48428,
      "max": [
        0.9970150589942932,
        0.774024486541748
      ],
      "min": [
        0.00012437967234291136,
        0.00012437967234291136
      ],
      "type": "VEC2"
    },
    {
      "bufferView": 0,
      "byteOffset": 2555328,
      "componentType": 5125,
      "count": 281889,
      "type": "SCALAR"
    }
  ],
  "asset": {
    "extras": {
      "author": "thethieme (https://sketchfab.com/thethieme)",
      "license": "CC-BY-4.0 (http://creativecommons.org/licenses/by/4.0/)",
      "source": "https://sketchfab.com/3d-models/messy-bed-b49dc1778b0b430cabdbad327d6e2e0d",
      "title": "Messy Bed"
    },
    "generator": "Sketchfab-12.66.0",
    "version": "2.0"
  },
  "bufferViews": [
    {
      "buffer": 0,
      "byteLength": 3682884,
      "name": "floatBufferViews",
      "target": 34963
    },
    {
      "buffer": 0,
      "byteLength": 1269160,
      "byteOffset": 3682884,
      "byteStride": 8,
      "name": "floatBufferViews",
      "target": 34962
    },
    {
      "buffer": 0,
      "byteLength": 3807480,
      "byteOffset": 4952044,
      "byteStride": 12,
      "name": "floatBufferViews",
      "target": 34962
    },
    {
      "buffer": 0,
      "byteLength": 2538320,
      "byteOffset": 8759524,
      "byteStride": 16,
      "name": "floatBufferViews",
      "target": 34962
    }
  ],
  "buffers": [
    {
      "byteLength": 11297844,
      "uri": "scene.bin"
    }
  ],
  "images": [
    {
      "uri": "textures/BedFrame_baseColor.jpeg"
    },
    {
      "uri": "textures/BedFrame_metallicRoughness.png"
    },
    {
      "uri": "textures/BedFrame_normal.png"
    },
    {
      "uri": "textures/Matress_baseColor.jpeg"
    },
    {
      "uri": "textures/Matress_metallicRoughness.png"
    },
    {
      "uri": "textures/Matress_normal.png"
    },
    {
      "uri": "textures/Pillow_2_baseColor.jpeg"
    },
    {
      "uri": "textures/Pillow_2_metallicRoughness.png"
    },
    {
      "uri": "textures/Pillow_2_normal.png"
    },
    {
      "uri": "textures/Pillow_1_baseColor.jpeg"
    },
    {
      "uri": "textures/Pillow_1_metallicRoughness.png"
    },
    {
      "uri": "textures/Pillow_1_normal.png"
    },
    {
      "uri": "textures/Sheet_baseColor.jpeg"
    },
    {
      "uri": "textures/Sheet_metallicRoughness.png"
    },
    {
      "uri": "textures/Sheet_normal.png"
    },
    {
      "uri": "textures/Duvet_baseColor.jpeg"
    },
    {
      "uri": "textures/Duvet_metallicRoughness.png"
    },
    {
      "uri": "textures/Duvet_normal.png"
    }
  ],
  "materials": [
    {
      "doubleSided": true,
      "name": "BedFrame",
      "normalTexture": {
        "index": 2
      },
      "occlusionTexture": {
        "index": 1
      },
      "pbrMetallicRoughness": {
        "baseColorTexture": {
          "index": 0
        },
        "metallicFactor": 0.0,
        "metallicRoughnessTexture": {
          "index": 1
        }
      }
    },
    {
      "doubleSided": true,
      "name": "Matress",
      "normalTexture": {
        "index": 5
      },
      "pbrMetallicRoughness": {
        "baseColorTexture": {
          "index": 3
        },
        "metallicFactor": 0.0,
        "metallicRoughnessTexture": {
          "index": 4
        }
      }
    },
    {
      "doubleSided": true,
      "name": "Pillow_2",
      "normalTexture": {
        "index": 8
      },
      "occlusionTexture": {
        "index": 7
      },
      "pbrMetallicRoughness": {
        "baseColorTexture": {
          "index": 6
        },
        "metallicFactor": 0.0,
        "metallicRoughnessTexture": {
          "index": 7
        }
      }
    },
    {
      "doubleSided": true,
      "name": "Pillow_1",
      "normalTexture": {
        "index": 11
      },
      "occlusionTexture": {
        "index": 10
      },
      "pbrMetallicRoughness": {
        "baseColorTexture": {
          "index": 9
        },
        "metallicFactor": 0.0,
        "metallicRoughnessTexture": {
          "index": 10
        }
      }
    },
    {
      "doubleSided": true,
      "name": "Sheet",
      "normalTexture": {
        "index": 14
      },
      "occlusionTexture": {
        "index": 13
      },
      "pbrMetallicRoughness": {
        "baseColorTexture": {
          "index": 12
        },
        "metallicFactor": 0.0,
        "metallicRoughnessTexture": {
          "index": 13
        }
      }
    },
    {
      "doubleSided": true,
      "name": "Duvet",
      "normalTexture": {
        "index": 17
      },
      "occlusionTexture": {
        "index": 16
      },
      "pbrMetallicRoughness": {
        "baseColorTexture": {
          "index": 15
        },
        "metallicFactor": 0.0,
        "metallicRoughnessTexture": {
          "index": 16
        }
      }
    }
  ],
  "meshes": [
    {
      "name": "Bed_BedFrame_0",
      "primitives": [
        {
          "attributes": {
            "NORMAL": 1,
            "POSITION": 0,
            "TANGENT": 2,
            "TEXCOORD_0": 3
          },
          "indices": 4,
          "material": 0,
          "mode": 4
        }
      ]
    },
    {
      "name": "Matress_Matress_0",
      "primitives": [
        {
          "attributes": {
            "NORMAL": 6,
            "POSITION": 5,
            "TANGENT": 7,
            "TEXCOORD_0": 8
          },
          "indices": 9,
          "material": 1,
          "mode": 4
        }
      ]
    },
    {
      "name": "Pillow_2_Pillow_2_0",
      "primitives": [
        {
          "attributes": {
            "NORMAL": 11,
            "POSITION": 10,
            "TANGENT": 12,
            "TEXCOORD_0": 13
          },
          "indices": 14,
          "material": 2,
          "mode": 4
        }
      ]
    },
    {
      "name": "Pillow_1_Pillow_1_0",
      "primitives": [
        {
          "attributes": {
            "NORMAL": 16,
            "POSITION": 15,
            "TANGENT": 17,
            "TEXCOORD_0": 18
          },
          "indices": 19,
          "material": 3,
          "mode": 4
        }
      ]
    },
    {
      "name": "Sheet_Sheet_0",
      "primitives": [
        {
          "attributes": {
            "NORMAL": 21,
            "POSITION": 20,
            "TANGENT": 22,
            "TEXCOORD_0": 23
          },
          "indices": 24,
          "material": 4,
          "mode": 4
        }
      ]
    },
    {
      "name": "Duvet_Duvet_0",
      "primitives": [
        {
          "attributes": {
            "NORMAL": 26,
            "POSITION": 25,
            "TANGENT": 27,
            "TEXCOORD_0": 28
          },
          "indices": 29,
          "material": 5,
          "mode": 4
        }
      ]
    },
    {
      "name": "Duvet_Duvet_0",
      "primitives": [
        {
          "attributes": {
            "NORMAL": 31,
            "POSITION": 30,
            "TANGENT": 32,
            "TEXCOORD_0": 33
          },
          "indices": 34,
          "material": 5,
          "mode": 4
        }
      ]
    }
  ],
  "nodes": [
    {
      "children": [
        1
      ],
      "matrix": [
        1.0,
        0.0,
        0.0,
        0.0,
        0.0,
        2.220446049250313e-16,
        -1.0,
        0.0,
        0.0,
        1.0,
        2.220446049250313e-16,
        0.0,
        0.0,
        0.0,
        0.0,
        1.0
      ],
      "name": "Sketchfab_model"
    },
    {
      "children": [
        2
      ],
      "matrix": [
        1.0,
        0.0,
        0.0,
        0.0,
        0.0,
        0.0,
        1.0,
        0.0,
        0.0,
        -1.0,
        0.0,
        0.0,
        0.0,
        0.0,
        0.0,
        1.0
      ],
      "name": "72b1da251b0d4a86a566c7132a34c4cf.fbx"
    },
    {
      "children": [
        3,
        5,
        7,
        9,
        11,
        13
      ],
      "name": "RootNode"
    },
    {
      "children": [
        4
      ],
      "matrix": [
        100.0,
        0.0,
        0.0,
        0.0,
        0.0,
        -1.629206793918314e-05,
        -99.99999999999868,
        0.0,
        0.0,
        99.99999999999868,
        -1.629206793918314e-05,
        0.0,
        0.0,
        0.0,
        0.0,
        1.0
      ],
      "name": "Bed"
    },
    {
      "mesh": 0,
      "name": "Bed_BedFrame_0"
    },
    {
      "children": [
        6
      ],
      "matrix": [
        100.0,
        0.0,
        0.0,
        0.0,
        0.0,
        -1.629206793918314e-05,
        -99.99999999999868,
        0.0,
        0.0,
        99.99999999999868,
        -1.629206793918314e-05,
        0.0,
        0.0,
        47.887271881103516,
        0.0,
        1.0
      ],
      "name": "Matress"
    },
    {
      "mesh": 1,
      "name": "Matress_Matress_0"
    },
    {
      "children": [
        8
      ],
      "matrix": [
        1.0,
        0.0,
        0.0,
        0.0,
        0.0,
        0.9999999999999867,
        1.6292067073209113e-07,
        0.0,
        0.0,
        -1.6292067073209113e-07,
        0.9999999999999867,
        0.0,
        0.0,
        0.0,
        0.0,
        1.0
      ],
      "name": "Pillow_2"
    },
    {
      "mesh": 2,
      "name": "Pillow_2_Pillow_2_0"
    },
    {
      "children": [
        10
      ],
      "matrix": [
        1.0,
        0.0,
        0.0,
        0.0,
        0.0,
        0.9999999999999867,
        1.6292067073209113e-07,
        0.0,
        0.0,
        -1.6292067073209113e-07,
        0.9999999999999867,
        0.0,
        0.0,
        0.0,
        0.0,
        1.0
      ],
      "name": "Pillow_1"
    },
    {
      "mesh": 3,
      "name": "Pillow_1_Pillow_1_0"
    },
    {
      "children": [
        12
      ],
      "matrix": [
        1.0,
        0.0,
        0.0,
        0.0,
        0.0,
        0.9999999999999867,
        1.6292067073209113e-07,
        0.0,
        0.0,
        -1.6292067073209113e-07,
        0.9999999999999867,
        0.0,
        0.0,
        0.0,
        0.0,
        1.0
      ],
      "name": "Sheet"
    },
    {
      "mesh": 4,
      "name": "Sheet_Sheet_0"
    },
    {
      "children": [
        14,
        15
      ],
      "matrix": [
        1.0,
        0.0,
        0.0,
        0.0,
        0.0,
        0.9999999999999867,
        1.6292067073209113e-07,
        0.0,
        0.0,
        -1.6292067073209113e-07,
        0.9999999999999867,
        0.0,
        0.0,
        0.0,
        0.0,
        1.0
      ],
      "name": "Duvet"
    },
    {
      "mesh": 5,
      "name": "Duvet_Duvet_0"
    },
    {
      "mesh": 6,
      "name": "Duvet_Duvet_0"
    }
  ],
  "samplers": [
    {
      "magFilter": 9729,
      "minFilter": 9987,
      "wrapS": 10497,
      "wrapT": 10497
    }
  ],
  "scene": 0,
  "scenes": [
    {
      "name": "Sketchfab_Scene",
      "nodes": [
        0
      ]
    }
  ],
  "textures": [
    {
      "sampler": 0,
      "source": 0
    },
    {
      "sampler": 0,
      "source": 1
    },
    {
      "sampler": 0,
      "source": 2
    },
    {
      "sampler": 0,
      "source": 3
    },
    {
      "sampler": 0,
      "source": 4
    },
    {
      "sampler": 0,
      "source": 5
    },
    {
      "sampler": 0,
      "source": 6
    },
    {
      "sampler": 0,
      "source": 7
    },
    {
      "sampler": 0,
      "source": 8
    },
    {
      "sampler": 0,
      "source": 9
    },
    {
      "sampler": 0,
      "source": 10
    },
    {
      "sampler": 0,
      "source": 11
    },
    {
      "sampler": 0,
      "source": 12
    },
    {
      "sampler": 0,
      "source": 13
    },
    {
      "sampler": 0,
      "source": 14
    },
    {
      "sampler": 0,
      "source": 15
    },
    {
      "sampler": 0,
      "source": 16
    },
    {
      "sampler": 0,
      "source": 17
    }
  ]
}
