{
  "accessors": [
    {
      "bufferView": 2,
      "componentType": 5126,
      "count": 292,
      "max": [
        0.8566829562187195,
        0.8432050347328186,
        1.1945499181747437
      ],
      "min": [
        -0.8881058692932129,
        -0.8432050347328186,
        -0.0025353431701660156
      ],
      "type": "VEC3"
    },
    {
      "bufferView": 2,
      "byteOffset": 3504,
      "componentType": 5126,
      "count": 292,
      "max": [
        0.9908262491226196,
        0.9918493032455444,
        0.9896496534347534
      ],
      "min": [
        -0.9940513968467712,
        -0.9918491840362549,
        -0.9831777811050415
      ],
      "type": "VEC3"
    },
    {
      "bufferView": 3,
      "componentType": 5126,
      "count": 292,
      "max": [
        0.9923713803291321,
        0.9159725308418274,
        0.9815564751625061,
        1.0
      ],
      "min": [
        -0.9988994598388672,
        -0.8858695030212402,
        -0.9964666366577148,
        1.0
      ],
      "type": "VEC4"
    },
    {
      "bufferView": 1,
      "componentType": 5126,
      "count": 292,
      "max": [
        0.9997075796127319,
        0.975577712059021
      ],
      "min": [
        0.00029238028218969703,
        0.00029238028218969703
      ],
      "type": "VEC2"
    },
    {
      "bufferView": 0,
      "componentType": 5125,
      "count": 1158,
      "type": "SCALAR"
    },
    {
      "bufferView": 2,
      "byteOffset": 7008,
      "componentType": 5126,
      "count": 4,
      "max": [
        0.7163262963294983,
        0.5668210387229919,
        0.6298956274986267
      ],
      "min": [
        -0.21880891919136047,
        -0.5660426020622253,
        0.08719974756240845
      ],
      "type": "VEC3"
    },
    {
      "bufferView": 2,
      "byteOffset": 7056,
      "componentType": 5126,
      "count": 4,
      "max": [
        0.5021080374717712,
        0.006348433904349804,
        0.8647816181182861
      ],
      "min": [
        0.5021080374717712,
        0.006348433904349804,
        0.8647816181182861
      ],
      "type": "VEC3"
    },
    {
      "bufferView": 3,
      "byteOffset": 4672,
      "componentType": 5126,
      "count": 4,
      "max": [
        -0.5799211263656616,
        -0.7069215774536133,
        0.35901808738708496,
        -1.0
      ],
      "min": [
        -0.6093996167182922,
        -0.7393452525138855,
        0.34214043617248535,
        -1.0
      ],
      "type": "VEC4"
    },
    {
      "bufferView": 1,
      "byteOffset": 2336,
      "componentType": 5126,
      "count": 4,
      "max": [
        0.9999785423278809,
        0.9999732375144958
      ],
      "min": [
        8.372619049623609e-06,
        1.1886499123647809e-05
      ],
      "type": "VEC2"
    },
    {
      "bufferView": 0,
      "byteOffset": 4632,
      "componentType": 5125,
      "count": 6,
      "type": "SCALAR"
    },
    {
      "bufferView": 2,
      "byteOffset": 7104,
      "componentType": 5126,
      "count": 720,
      "max": [
        12.185587882995605,
        14.427216529846191,
        3.256398916244507
      ],
      "min": [
        -15.74554443359375,
        -18.142454147338867,
        -5.706661224365234
      ],
      "type": "VEC3"
    },
    {
      "bufferView": 2,
      "byteOffset": 15744,
      "componentType": 5126,
      "count": 720,
      "max": [
        0.9760594964027405,
        0.9877991080284119,
        0.9999297857284546
      ],
      "min": [
        -0.9874827265739441,
        -0.9934832453727722,
        -0.9999294281005859
      ],
      "type": "VEC3"
    },
    {
      "bufferView": 3,
      "byteOffset": 4736,
      "componentType": 5126,
      "count": 720,
      "max": [
        0.9999241828918457,
        0.9987501502037048,
        0.9980043172836304,
        1.0
      ],
      "min": [
        -0.9982998967170715,
        -0.9996584057807922,
        -0.9972208142280579,
        -1.0
      ],
      "type": "VEC4"
    },
    {
      "bufferView": 1,
      "byteOffset": 2368,
      "componentType": 5126,
      "count": 720,
      "max": [
        0.9499616622924805,
        0.9267672896385193
      ],
      "min": [
        0.027416855096817017,
        0.05185617879033089
      ],
      "type": "VEC2"
    },
    {
      "bufferView": 0,
      "byteOffset": 4656,
      "componentType": 5125,
      "count": 4176,
      "type": "SCALAR"
    },
    {
      "bufferView": 2,
      "byteOffset": 24384,
      "componentType": 5126,
      "count": 118,
      "max": [
        1.1272052526474,
        1.6580389738082886,
        5.297821044921875
      ],
      "min": [
        -3.423388957977295,
        -1.0,
        -1.0
      ],
      "type": "VEC3"
    },
    {
      "bufferView": 2,
      "byteOffset": 25800,
      "componentType": 5126,
      "count": 118,
      "max": [
        0.997799277305603,
        0.997811496257782,
        0.9403141736984253
      ],
      "min": [
        -0.9999232292175293,
        -0.9961962103843689,
        -0.7486370205879211
      ],
      "type": "VEC3"
    },
    {
      "bufferView": 3,
      "byteOffset": 16256,
      "componentType": 5126,
      "count": 118,
      "max": [
        0.99993497133255,
        0.9914007782936096,
        0.8035503029823303,
        1.0
      ],
      "min": [
        -0.9995236396789551,
        -0.9975388050079346,
        -0.9455570578575134,
        1.0
      ],
      "type": "VEC4"
    },
    {
      "bufferView": 1,
      "byteOffset": 8128,
      "componentType": 5126,
      "count": 118,
      "max": [
        0.7664617896080017,
        0.9989343881607056
      ],
      "min": [
        0.02715754136443138,
        0.00021111963724251837
      ],
      "type": "VEC2"
    },
    {
      "bufferView": 0,
      "byteOffset": 21360,
      "componentType": 5125,
      "count": 522,
      "type": "SCALAR"
    }
  ],
  "asset": {
    "extras": {
      "author": "OverLord (https://sketchfab.com/San.Dro)",
      "license": "CC-BY-4.0 (http://creativecommons.org/licenses/by/4.0/)",
      "source": "https://sketchfab.com/3d-models/plant-in-pot-00c35e3215f74e4f9e33b6b7a14a87cf",
      "title": "Plant in pot"
    },
    "generator": "Sketchfab-12.68.0",
    "version": "2.0"
  },
  "bufferViews": [
    {
      "buffer": 0,
      "byteLength": 23448,
      "name": "floatBufferViews",
      "target": 34963
    },
    {
      "buffer": 0,
      "byteLength": 9072,
      "byteOffset": 23448,
      "byteStride": 8,
      "name": "floatBufferViews",
      "target": 34962
    },
    {
      "buffer": 0,
      "byteLength": 27216,
      "byteOffset": 32520,
      "byteStride": 12,
      "name": "floatBufferViews",
      "target": 34962
    },
    {
      "buffer": 0,
      "byteLength": 18144,
      "byteOffset": 59736,
      "byteStride": 16,
      "name": "floatBufferViews",
      "target": 34962
    }
  ],
  "buffers": [
    {
      "byteLength": 77880,
      "uri": "scene.bin"
    }
  ],
  "extensionsUsed": [
    "KHR_materials_clearcoat"
  ],
  "images": [
    {
      "uri": "textures/Concrete_baseColor.jpeg"
    },
    {
      "uri": "textures/Concrete_metallicRoughness.png"
    },
    {
      "uri": "textures/Concrete_normal.png"
    },
    {
      "uri": "textures/Ground_baseColor.jpeg"
    },
    {
      "uri": "textures/Ground_metallicRoughness.png"
    },
    {
      "uri": "textures/Ground_normal.png"
    },
    {
      "uri": "textures/Leaf_baseColor.jpeg"
    },
    {
      "uri": "textures/Leaf_metallicRoughness.png"
    },
    {
      "uri": "textures/Leaf_normal.png"
    },
    {
      "uri": "textures/Tree_baseColor.jpeg"
    },
    {
      "uri": "textures/Tree_metallicRoughness.png"
    },
    {
      "uri": "textures/Tree_normal.png"
    }
  ],
  "materials": [
    {
      "doubleSided": true,
      "extensions": {
        "KHR_materials_clearcoat": {
          "clearcoatFactor": 1.0,
          "clearcoatRoughnessFactor": 0.11723333880548918
        }
      },
      "name": "Concrete",
      "normalTexture": {
        "index": 2
      },
      "occlusionTexture": {
        "index": 1
      },
      "pbrMetallicRoughness": {
        "baseColorTexture": {
          "index": 0
        },
        "metallicRoughnessTexture": {
          "index": 1
        }
      }
    },
    {
      "doubleSided": true,
      "name": "Ground",
      "normalTexture": {
        "index": 5
      },
      "occlusionTexture": {
        "index": 4
      },
      "pbrMetallicRoughness": {
        "baseColorFactor": [
          0.38476095799208365,
          0.38476095799208365,
          0.38476095799208365,
          1.0
        ],
        "baseColorTexture": {
          "index": 3
        },
        "metallicRoughnessTexture": {
          "index": 4
        },
        "roughnessFactor": 0.45772303595206393
      }
    },
    {
      "doubleSided": true,
      "name": "Leaf",
      "normalTexture": {
        "index": 8
      },
      "occlusionTexture": {
        "index": 7
      },
      "pbrMetallicRoughness": {
        "baseColorFactor": [
          0.5124445944220491,
          0.5124445944220491,
          0.5124445944220491,
          1.0
        ],
        "baseColorTexture": {
          "index": 6
        },
        "metallicFactor": 0.6097273650353562,
        "metallicRoughnessTexture": {
          "index": 7
        }
      }
    },
    {
      "doubleSided": true,
      "name": "Tree",
      "normalTexture": {
        "index": 11
      },
      "occlusionTexture": {
        "index": 10
      },
      "pbrMetallicRoughness": {
        "baseColorFactor": [
          0.7252506551386584,
          0.7252506551386584,
          0.7252506551386584,
          1.0
        ],
        "baseColorTexture": {
          "index": 9
        },
        "metallicRoughnessTexture": {
          "index": 10
        },
        "roughnessFactor": 0.27531784105211315
      }
    }
  ],
  "meshes": [
    {
      "name": "Pot_Concrete_0",
      "primitives": [
        {
          "attributes": {
            "NORMAL": 1,
            "POSITION": 0,
            "TANGENT": 2,
            "TEXCOORD_0": 3
          },
          "indices": 4,
          "material": 0,
          "mode": 4
        }
      ]
    },
    {
      "name": "Ground_Ground_0",
      "primitives": [
        {
          "attributes": {
            "NORMAL": 6,
            "POSITION": 5,
            "TANGENT": 7,
            "TEXCOORD_0": 8
          },
          "indices": 9,
          "material": 1,
          "mode": 4
        }
      ]
    },
    {
      "name": "Leaf_Leaf_0",
      "primitives": [
        {
          "attributes": {
            "NORMAL": 11,
            "POSITION": 10,
            "TANGENT": 12,
            "TEXCOORD_0": 13
          },
          "indices": 14,
          "material": 2,
          "mode": 4
        }
      ]
    },
    {
      "name": "Tree_Tree_0",
      "primitives": [
        {
          "attributes": {
            "NORMAL": 16,
            "POSITION": 15,
            "TANGENT": 17,
            "TEXCOORD_0": 18
          },
          "indices": 19,
          "material": 3,
          "mode": 4
        }
      ]
    }
  ],
  "nodes": [
    {
      "children": [
        1
      ],
      "matrix": [
        1.0,
        0.0,
        0.0,
        0.0,
        0.0,
        2.220446049250313e-16,
        -1.0,
        0.0,
        0.0,
        1.0,
        2.220446049250313e-16,
        0.0,
        0.0,
        0.0,
        0.0,
        1.0
      ],
      "name": "Sketchfab_model"
    },
    {
      "children": [
        2
      ],
      "matrix": [
        1.0,
        0.0,
        0.0,
        0.0,
        0.0,
        0.0,
        1.0,
        0.0,
        0.0,
        -1.0,
        0.0,
        0.0,
        0.0,
        0.0,
        0.0,
        1.0
      ],
      "name": "Pot.fbx"
    },
    {
      "children": [
        3,
        5,
        7,
        9
      ],
      "name": "RootNode"
    },
    {
      "children": [
        4
      ],
      "matrix": [
        100.0,
        0.0,
        0.0,
        0.0,
        0.0,
        -1.629206793918314e-05,
        -99.99999999999868,
        0.0,
        0.0,
        99.99999999999868,
        -1.629206793918314e-05,
        0.0,
        0.0,
        0.0,
        0.0,
        1.0
      ],
      "name": "Pot"
    },
    {
      "mesh": 0,
      "name": "Pot_Concrete_0"
    },
    {
      "children": [
        6
      ],
      "matrix": [
        104.57157897949219,
        0.0,
        0.0,
        0.0,
        -0.0,
        -1.7036872692415424e-05,
        -104.57157897949081,
        0.0,
        0.0,
        104.57157897949081,
        -1.7036872692415424e-05,
        0.0,
        -0.4077910780906677,
        41.95215606689453,
        -0.7911410331726074,
        1.0
      ],
      "name": "Ground"
    },
    {
      "mesh": 1,
      "name": "Ground_Ground_0"
    },
    {
      "children": [
        8
      ],
      "matrix": [
        -1.8938770875481432,
        0.44847740806599634,
        -0.8670943095595459,
        0.0,
        -0.8398250861190859,
        0.2163010691280922,
        1.9461915646185728,
        0.0,
        0.4976727224455122,
        2.071674646496046,
        -0.015490460694522545,
        0.0,
        25.429027557373047,
        93.46717071533203,
        -3.6783366203308105,
        1.0
      ],
      "name": "Leaf"
    },
    {
      "mesh": 2,
      "name": "Leaf_Leaf_0"
    },
    {
      "children": [
        10
      ],
      "matrix": [
        2.166633288410282,
        -1.6875124883795534,
        -0.25112958342031216,
        0.0,
        -0.2846205704605132,
        0.042723699513151484,
        -2.742668424896456,
        0.0,
        1.6821878867320246,
        2.1807203814093414,
        -0.14059914430248877,
        0.0,
        22.940778732299805,
        80.1570053100586,
        -1.0962307453155518,
        1.0
      ],
      "name": "Tree"
    },
    {
      "mesh": 3,
      "name": "Tree_Tree_0"
    }
  ],
  "samplers": [
    {
      "magFilter": 9729,
      "minFilter": 9987,
      "wrapS": 10497,
      "wrapT": 10497
    }
  ],
  "scene": 0,
  "scenes": [
    {
      "name": "Sketchfab_Scene",
      "nodes": [
        0
      ]
    }
  ],
  "textures": [
    {
      "sampler": 0,
      "source": 0
    },
    {
      "sampler": 0,
      "source": 1
    },
    {
      "sampler": 0,
      "source": 2
    },
    {
      "sampler": 0,
      "source": 3
    },
    {
      "sampler": 0,
      "source": 4
    },
    {
      "sampler": 0,
      "source": 5
    },
    {
      "sampler": 0,
      "source": 6
    },
    {
      "sampler": 0,
      "source": 7
    },
    {
      "sampler": 0,
      "source": 8
    },
    {
      "sampler": 0,
      "source": 9
    },
    {
      "sampler": 0,
      "source": 10
    },
    {
      "sampler": 0,
      "source": 11
    }
  ]
}
